<svg width="17" height="19" viewBox="0 0 17 19" fill="none" xmlns="http://www.w3.org/2000/svg">
<g clip-path="url(#clip0_983_10617)">
<path d="M7.96171 9.08203L0.425049 16.9782C0.509685 17.2781 0.661778 17.5547 0.869703 17.7869C1.07763 18.019 1.33588 18.2006 1.62471 18.3176C1.91355 18.4347 2.22532 18.4841 2.5362 18.4622C2.84708 18.4403 3.14883 18.3476 3.41839 18.1912L11.8986 13.3615L7.96171 9.08203Z" fill="#EA4335"/>
<path d="M15.5832 7.73914L11.9161 5.63867L7.78833 9.26093L11.9329 13.3494L15.5721 11.2715C15.8945 11.1027 16.1645 10.8488 16.3529 10.5375C16.5413 10.2261 16.6409 9.86918 16.6409 9.50527C16.6409 9.14136 16.5413 8.78439 16.3529 8.47305C16.1645 8.16171 15.8945 7.90789 15.5721 7.73907L15.5832 7.73914Z" fill="#FBBC04"/>
<path d="M0.426084 1.99414C0.380529 2.16255 0.357852 2.33633 0.358664 2.5108V16.4609C0.359136 16.6353 0.381791 16.809 0.426084 16.9776L8.2211 9.28369L0.426084 1.99414Z" fill="#4285F4"/>
<path d="M8.01805 9.48563L11.9156 5.63865L3.44669 0.786414C3.12805 0.599804 2.76565 0.500978 2.39639 0.500004C1.48004 0.498223 0.674433 1.10641 0.425232 1.98828L8.01805 9.48563Z" fill="#34A853"/>
</g>
<defs>
<clipPath id="clip0_983_10617">
<rect width="16.2827" height="18" fill="white" transform="translate(0.358643 0.5)"/>
</clipPath>
</defs>
</svg>
