<svg width="1440" height="751" viewBox="0 0 1440 751" fill="none" xmlns="http://www.w3.org/2000/svg">
<g clip-path="url(#clip0_914_41029)">
<mask id="path-3-inside-1_914_41029" fill="white">
<path d="M-49 0H47V96H-49V0Z"/>
</mask>
<path d="M47 96V97H48V96H47ZM47 0H46V96H47H48V0H47ZM47 96V95H-49V96V97H47V96Z" fill="#A3B0C4" fill-opacity="0.1" mask="url(#path-3-inside-1_914_41029)"/>
<mask id="path-5-inside-2_914_41029" fill="white">
<path d="M47 0H143V96H47V0Z"/>
</mask>
<path d="M143 96V97H144V96H143ZM143 0H142V96H143H144V0H143ZM143 96V95H47V96V97H143V96Z" fill="#A3B0C4" fill-opacity="0.1" mask="url(#path-5-inside-2_914_41029)"/>
<mask id="path-7-inside-3_914_41029" fill="white">
<path d="M143 0H239V96H143V0Z"/>
</mask>
<path d="M239 96V97H240V96H239ZM239 0H238V96H239H240V0H239ZM239 96V95H143V96V97H239V96Z" fill="#A3B0C4" fill-opacity="0.1" mask="url(#path-7-inside-3_914_41029)"/>
<mask id="path-9-inside-4_914_41029" fill="white">
<path d="M239 0H335V96H239V0Z"/>
</mask>
<path d="M335 96V97H336V96H335ZM335 0H334V96H335H336V0H335ZM335 96V95H239V96V97H335V96Z" fill="#A3B0C4" fill-opacity="0.1" mask="url(#path-9-inside-4_914_41029)"/>
<mask id="path-11-inside-5_914_41029" fill="white">
<path d="M335 0H431V96H335V0Z"/>
</mask>
<path d="M431 96V97H432V96H431ZM431 0H430V96H431H432V0H431ZM431 96V95H335V96V97H431V96Z" fill="#A3B0C4" fill-opacity="0.1" mask="url(#path-11-inside-5_914_41029)"/>
<mask id="path-13-inside-6_914_41029" fill="white">
<path d="M431 0H527V96H431V0Z"/>
</mask>
<path d="M527 96V97H528V96H527ZM527 0H526V96H527H528V0H527ZM527 96V95H431V96V97H527V96Z" fill="#A3B0C4" fill-opacity="0.1" mask="url(#path-13-inside-6_914_41029)"/>
<mask id="path-15-inside-7_914_41029" fill="white">
<path d="M527 0H623V96H527V0Z"/>
</mask>
<path d="M623 96V97H624V96H623ZM623 0H622V96H623H624V0H623ZM623 96V95H527V96V97H623V96Z" fill="#A3B0C4" fill-opacity="0.1" mask="url(#path-15-inside-7_914_41029)"/>
<mask id="path-17-inside-8_914_41029" fill="white">
<path d="M623 0H719V96H623V0Z"/>
</mask>
<path d="M719 96V97H720V96H719ZM719 0H718V96H719H720V0H719ZM719 96V95H623V96V97H719V96Z" fill="#A3B0C4" fill-opacity="0.1" mask="url(#path-17-inside-8_914_41029)"/>
<mask id="path-19-inside-9_914_41029" fill="white">
<path d="M719 0H815V96H719V0Z"/>
</mask>
<path d="M815 96V97H816V96H815ZM815 0H814V96H815H816V0H815ZM815 96V95H719V96V97H815V96Z" fill="#A3B0C4" fill-opacity="0.1" mask="url(#path-19-inside-9_914_41029)"/>
<mask id="path-21-inside-10_914_41029" fill="white">
<path d="M815 0H911V96H815V0Z"/>
</mask>
<path d="M911 96V97H912V96H911ZM911 0H910V96H911H912V0H911ZM911 96V95H815V96V97H911V96Z" fill="#A3B0C4" fill-opacity="0.1" mask="url(#path-21-inside-10_914_41029)"/>
<mask id="path-23-inside-11_914_41029" fill="white">
<path d="M911 0H1007V96H911V0Z"/>
</mask>
<path d="M1007 96V97H1008V96H1007ZM1007 0H1006V96H1007H1008V0H1007ZM1007 96V95H911V96V97H1007V96Z" fill="#A3B0C4" fill-opacity="0.1" mask="url(#path-23-inside-11_914_41029)"/>
<mask id="path-25-inside-12_914_41029" fill="white">
<path d="M1007 0H1103V96H1007V0Z"/>
</mask>
<path d="M1103 96V97H1104V96H1103ZM1103 0H1102V96H1103H1104V0H1103ZM1103 96V95H1007V96V97H1103V96Z" fill="#A3B0C4" fill-opacity="0.1" mask="url(#path-25-inside-12_914_41029)"/>
<mask id="path-27-inside-13_914_41029" fill="white">
<path d="M1103 0H1199V96H1103V0Z"/>
</mask>
<path d="M1199 96V97H1200V96H1199ZM1199 0H1198V96H1199H1200V0H1199ZM1199 96V95H1103V96V97H1199V96Z" fill="#A3B0C4" fill-opacity="0.1" mask="url(#path-27-inside-13_914_41029)"/>
<mask id="path-29-inside-14_914_41029" fill="white">
<path d="M1199 0H1295V96H1199V0Z"/>
</mask>
<path d="M1295 96V97H1296V96H1295ZM1295 0H1294V96H1295H1296V0H1295ZM1295 96V95H1199V96V97H1295V96Z" fill="#A3B0C4" fill-opacity="0.1" mask="url(#path-29-inside-14_914_41029)"/>
<mask id="path-31-inside-15_914_41029" fill="white">
<path d="M1295 0H1391V96H1295V0Z"/>
</mask>
<path d="M1391 96V97H1392V96H1391ZM1391 0H1390V96H1391H1392V0H1391ZM1391 96V95H1295V96V97H1391V96Z" fill="#A3B0C4" fill-opacity="0.1" mask="url(#path-31-inside-15_914_41029)"/>
<mask id="path-33-inside-16_914_41029" fill="white">
<path d="M1391 0H1487V96H1391V0Z"/>
</mask>
<path d="M1487 96V97H1488V96H1487ZM1487 0H1486V96H1487H1488V0H1487ZM1487 96V95H1391V96V97H1487V96Z" fill="#A3B0C4" fill-opacity="0.1" mask="url(#path-33-inside-16_914_41029)"/>
<mask id="path-35-inside-17_914_41029" fill="white">
<path d="M-49 96H47V192H-49V96Z"/>
</mask>
<path d="M47 192V193H48V192H47ZM47 96H46V192H47H48V96H47ZM47 192V191H-49V192V193H47V192Z" fill="#A3B0C4" fill-opacity="0.1" mask="url(#path-35-inside-17_914_41029)"/>
<mask id="path-37-inside-18_914_41029" fill="white">
<path d="M47 96H143V192H47V96Z"/>
</mask>
<path d="M143 192V193H144V192H143ZM143 96H142V192H143H144V96H143ZM143 192V191H47V192V193H143V192Z" fill="#A3B0C4" fill-opacity="0.1" mask="url(#path-37-inside-18_914_41029)"/>
<mask id="path-39-inside-19_914_41029" fill="white">
<path d="M143 96H239V192H143V96Z"/>
</mask>
<path d="M239 192V193H240V192H239ZM239 96H238V192H239H240V96H239ZM239 192V191H143V192V193H239V192Z" fill="#A3B0C4" fill-opacity="0.1" mask="url(#path-39-inside-19_914_41029)"/>
<mask id="path-41-inside-20_914_41029" fill="white">
<path d="M239 96H335V192H239V96Z"/>
</mask>
<path d="M239 96H335V192H239V96Z" fill="#A4A4A4" fill-opacity="0.1"/>
<path d="M335 192V193H336V192H335ZM335 96H334V192H335H336V96H335ZM335 192V191H239V192V193H335V192Z" fill="#A3B0C4" fill-opacity="0.1" mask="url(#path-41-inside-20_914_41029)"/>
<mask id="path-43-inside-21_914_41029" fill="white">
<path d="M335 96H431V192H335V96Z"/>
</mask>
<path d="M431 192V193H432V192H431ZM431 96H430V192H431H432V96H431ZM431 192V191H335V192V193H431V192Z" fill="#A3B0C4" fill-opacity="0.1" mask="url(#path-43-inside-21_914_41029)"/>
<mask id="path-45-inside-22_914_41029" fill="white">
<path d="M431 96H527V192H431V96Z"/>
</mask>
<path d="M527 192V193H528V192H527ZM527 96H526V192H527H528V96H527ZM527 192V191H431V192V193H527V192Z" fill="#A3B0C4" fill-opacity="0.1" mask="url(#path-45-inside-22_914_41029)"/>
<mask id="path-47-inside-23_914_41029" fill="white">
<path d="M527 96H623V192H527V96Z"/>
</mask>
<path d="M623 192V193H624V192H623ZM623 96H622V192H623H624V96H623ZM623 192V191H527V192V193H623V192Z" fill="#A3B0C4" fill-opacity="0.1" mask="url(#path-47-inside-23_914_41029)"/>
<mask id="path-49-inside-24_914_41029" fill="white">
<path d="M623 96H719V192H623V96Z"/>
</mask>
<path d="M719 192V193H720V192H719ZM719 96H718V192H719H720V96H719ZM719 192V191H623V192V193H719V192Z" fill="#A3B0C4" fill-opacity="0.1" mask="url(#path-49-inside-24_914_41029)"/>
<mask id="path-51-inside-25_914_41029" fill="white">
<path d="M719 96H815V192H719V96Z"/>
</mask>
<path d="M815 192V193H816V192H815ZM815 96H814V192H815H816V96H815ZM815 192V191H719V192V193H815V192Z" fill="#A3B0C4" fill-opacity="0.1" mask="url(#path-51-inside-25_914_41029)"/>
<mask id="path-53-inside-26_914_41029" fill="white">
<path d="M815 96H911V192H815V96Z"/>
</mask>
<path d="M911 192V193H912V192H911ZM911 96H910V192H911H912V96H911ZM911 192V191H815V192V193H911V192Z" fill="#A3B0C4" fill-opacity="0.1" mask="url(#path-53-inside-26_914_41029)"/>
<mask id="path-55-inside-27_914_41029" fill="white">
<path d="M911 96H1007V192H911V96Z"/>
</mask>
<path d="M1007 192V193H1008V192H1007ZM1007 96H1006V192H1007H1008V96H1007ZM1007 192V191H911V192V193H1007V192Z" fill="#A3B0C4" fill-opacity="0.1" mask="url(#path-55-inside-27_914_41029)"/>
<mask id="path-57-inside-28_914_41029" fill="white">
<path d="M1007 96H1103V192H1007V96Z"/>
</mask>
<path d="M1103 192V193H1104V192H1103ZM1103 96H1102V192H1103H1104V96H1103ZM1103 192V191H1007V192V193H1103V192Z" fill="#A3B0C4" fill-opacity="0.1" mask="url(#path-57-inside-28_914_41029)"/>
<mask id="path-59-inside-29_914_41029" fill="white">
<path d="M1103 96H1199V192H1103V96Z"/>
</mask>
<path d="M1103 96H1199V192H1103V96Z" fill="#A4A4A4" fill-opacity="0.1"/>
<path d="M1199 192V193H1200V192H1199ZM1199 96H1198V192H1199H1200V96H1199ZM1199 192V191H1103V192V193H1199V192Z" fill="#A3B0C4" fill-opacity="0.1" mask="url(#path-59-inside-29_914_41029)"/>
<mask id="path-61-inside-30_914_41029" fill="white">
<path d="M1199 96H1295V192H1199V96Z"/>
</mask>
<path d="M1295 192V193H1296V192H1295ZM1295 96H1294V192H1295H1296V96H1295ZM1295 192V191H1199V192V193H1295V192Z" fill="#A3B0C4" fill-opacity="0.1" mask="url(#path-61-inside-30_914_41029)"/>
<mask id="path-63-inside-31_914_41029" fill="white">
<path d="M1295 96H1391V192H1295V96Z"/>
</mask>
<path d="M1391 192V193H1392V192H1391ZM1391 96H1390V192H1391H1392V96H1391ZM1391 192V191H1295V192V193H1391V192Z" fill="#A3B0C4" fill-opacity="0.1" mask="url(#path-63-inside-31_914_41029)"/>
<mask id="path-65-inside-32_914_41029" fill="white">
<path d="M1391 96H1487V192H1391V96Z"/>
</mask>
<path d="M1487 192V193H1488V192H1487ZM1487 96H1486V192H1487H1488V96H1487ZM1487 192V191H1391V192V193H1487V192Z" fill="#A3B0C4" fill-opacity="0.1" mask="url(#path-65-inside-32_914_41029)"/>
<mask id="path-67-inside-33_914_41029" fill="white">
<path d="M-49 192H47V288H-49V192Z"/>
</mask>
<path d="M47 288V289H48V288H47ZM47 192H46V288H47H48V192H47ZM47 288V287H-49V288V289H47V288Z" fill="#A3B0C4" fill-opacity="0.1" mask="url(#path-67-inside-33_914_41029)"/>
<mask id="path-69-inside-34_914_41029" fill="white">
<path d="M47 192H143V288H47V192Z"/>
</mask>
<path d="M143 288V289H144V288H143ZM143 192H142V288H143H144V192H143ZM143 288V287H47V288V289H143V288Z" fill="#A3B0C4" fill-opacity="0.1" mask="url(#path-69-inside-34_914_41029)"/>
<mask id="path-71-inside-35_914_41029" fill="white">
<path d="M143 192H239V288H143V192Z"/>
</mask>
<path d="M239 288V289H240V288H239ZM239 192H238V288H239H240V192H239ZM239 288V287H143V288V289H239V288Z" fill="#A3B0C4" fill-opacity="0.1" mask="url(#path-71-inside-35_914_41029)"/>
<mask id="path-73-inside-36_914_41029" fill="white">
<path d="M239 192H335V288H239V192Z"/>
</mask>
<path d="M335 288V289H336V288H335ZM335 192H334V288H335H336V192H335ZM335 288V287H239V288V289H335V288Z" fill="#A3B0C4" fill-opacity="0.1" mask="url(#path-73-inside-36_914_41029)"/>
<mask id="path-75-inside-37_914_41029" fill="white">
<path d="M335 192H431V288H335V192Z"/>
</mask>
<path d="M431 288V289H432V288H431ZM431 192H430V288H431H432V192H431ZM431 288V287H335V288V289H431V288Z" fill="#A3B0C4" fill-opacity="0.1" mask="url(#path-75-inside-37_914_41029)"/>
<mask id="path-77-inside-38_914_41029" fill="white">
<path d="M431 192H527V288H431V192Z"/>
</mask>
<path d="M431 192H527V288H431V192Z" fill="#A4A4A4" fill-opacity="0.1"/>
<path d="M527 288V289H528V288H527ZM527 192H526V288H527H528V192H527ZM527 288V287H431V288V289H527V288Z" fill="#A3B0C4" fill-opacity="0.1" mask="url(#path-77-inside-38_914_41029)"/>
<mask id="path-79-inside-39_914_41029" fill="white">
<path d="M527 192H623V288H527V192Z"/>
</mask>
<path d="M623 288V289H624V288H623ZM623 192H622V288H623H624V192H623ZM623 288V287H527V288V289H623V288Z" fill="#A3B0C4" fill-opacity="0.1" mask="url(#path-79-inside-39_914_41029)"/>
<mask id="path-81-inside-40_914_41029" fill="white">
<path d="M623 192H719V288H623V192Z"/>
</mask>
<path d="M719 288V289H720V288H719ZM719 192H718V288H719H720V192H719ZM719 288V287H623V288V289H719V288Z" fill="#A3B0C4" fill-opacity="0.1" mask="url(#path-81-inside-40_914_41029)"/>
<mask id="path-83-inside-41_914_41029" fill="white">
<path d="M719 192H815V288H719V192Z"/>
</mask>
<path d="M815 288V289H816V288H815ZM815 192H814V288H815H816V192H815ZM815 288V287H719V288V289H815V288Z" fill="#A3B0C4" fill-opacity="0.1" mask="url(#path-83-inside-41_914_41029)"/>
<mask id="path-85-inside-42_914_41029" fill="white">
<path d="M815 192H911V288H815V192Z"/>
</mask>
<path d="M815 192H911V288H815V192Z" fill="#A4A4A4" fill-opacity="0.1"/>
<path d="M911 288V289H912V288H911ZM911 192H910V288H911H912V192H911ZM911 288V287H815V288V289H911V288Z" fill="#A3B0C4" fill-opacity="0.1" mask="url(#path-85-inside-42_914_41029)"/>
<mask id="path-87-inside-43_914_41029" fill="white">
<path d="M911 192H1007V288H911V192Z"/>
</mask>
<path d="M1007 288V289H1008V288H1007ZM1007 192H1006V288H1007H1008V192H1007ZM1007 288V287H911V288V289H1007V288Z" fill="#A3B0C4" fill-opacity="0.1" mask="url(#path-87-inside-43_914_41029)"/>
<mask id="path-89-inside-44_914_41029" fill="white">
<path d="M1007 192H1103V288H1007V192Z"/>
</mask>
<path d="M1103 288V289H1104V288H1103ZM1103 192H1102V288H1103H1104V192H1103ZM1103 288V287H1007V288V289H1103V288Z" fill="#A3B0C4" fill-opacity="0.1" mask="url(#path-89-inside-44_914_41029)"/>
<mask id="path-91-inside-45_914_41029" fill="white">
<path d="M1103 192H1199V288H1103V192Z"/>
</mask>
<path d="M1199 288V289H1200V288H1199ZM1199 192H1198V288H1199H1200V192H1199ZM1199 288V287H1103V288V289H1199V288Z" fill="#A3B0C4" fill-opacity="0.1" mask="url(#path-91-inside-45_914_41029)"/>
<mask id="path-93-inside-46_914_41029" fill="white">
<path d="M1199 192H1295V288H1199V192Z"/>
</mask>
<path d="M1295 288V289H1296V288H1295ZM1295 192H1294V288H1295H1296V192H1295ZM1295 288V287H1199V288V289H1295V288Z" fill="#A3B0C4" fill-opacity="0.1" mask="url(#path-93-inside-46_914_41029)"/>
<mask id="path-95-inside-47_914_41029" fill="white">
<path d="M1295 192H1391V288H1295V192Z"/>
</mask>
<path d="M1391 288V289H1392V288H1391ZM1391 192H1390V288H1391H1392V192H1391ZM1391 288V287H1295V288V289H1391V288Z" fill="#A3B0C4" fill-opacity="0.1" mask="url(#path-95-inside-47_914_41029)"/>
<mask id="path-97-inside-48_914_41029" fill="white">
<path d="M1391 192H1487V288H1391V192Z"/>
</mask>
<path d="M1487 288V289H1488V288H1487ZM1487 192H1486V288H1487H1488V192H1487ZM1487 288V287H1391V288V289H1487V288Z" fill="#A3B0C4" fill-opacity="0.1" mask="url(#path-97-inside-48_914_41029)"/>
<mask id="path-99-inside-49_914_41029" fill="white">
<path d="M-49 288H47V384H-49V288Z"/>
</mask>
<path d="M-49 288H47V384H-49V288Z" fill="#A4A4A4" fill-opacity="0.1"/>
<path d="M47 384V385H48V384H47ZM47 288H46V384H47H48V288H47ZM47 384V383H-49V384V385H47V384Z" fill="#A3B0C4" fill-opacity="0.1" mask="url(#path-99-inside-49_914_41029)"/>
<mask id="path-101-inside-50_914_41029" fill="white">
<path d="M47 288H143V384H47V288Z"/>
</mask>
<path d="M143 384V385H144V384H143ZM143 288H142V384H143H144V288H143ZM143 384V383H47V384V385H143V384Z" fill="#A3B0C4" fill-opacity="0.1" mask="url(#path-101-inside-50_914_41029)"/>
<mask id="path-103-inside-51_914_41029" fill="white">
<path d="M143 288H239V384H143V288Z"/>
</mask>
<path d="M239 384V385H240V384H239ZM239 288H238V384H239H240V288H239ZM239 384V383H143V384V385H239V384Z" fill="#A3B0C4" fill-opacity="0.1" mask="url(#path-103-inside-51_914_41029)"/>
<mask id="path-105-inside-52_914_41029" fill="white">
<path d="M239 288H335V384H239V288Z"/>
</mask>
<path d="M335 384V385H336V384H335ZM335 288H334V384H335H336V288H335ZM335 384V383H239V384V385H335V384Z" fill="#A3B0C4" fill-opacity="0.1" mask="url(#path-105-inside-52_914_41029)"/>
<mask id="path-107-inside-53_914_41029" fill="white">
<path d="M335 288H431V384H335V288Z"/>
</mask>
<path d="M431 384V385H432V384H431ZM431 288H430V384H431H432V288H431ZM431 384V383H335V384V385H431V384Z" fill="#A3B0C4" fill-opacity="0.1" mask="url(#path-107-inside-53_914_41029)"/>
<mask id="path-109-inside-54_914_41029" fill="white">
<path d="M431 288H527V384H431V288Z"/>
</mask>
<path d="M527 384V385H528V384H527ZM527 288H526V384H527H528V288H527ZM527 384V383H431V384V385H527V384Z" fill="#A3B0C4" fill-opacity="0.1" mask="url(#path-109-inside-54_914_41029)"/>
<mask id="path-111-inside-55_914_41029" fill="white">
<path d="M527 288H623V384H527V288Z"/>
</mask>
<path d="M623 384V385H624V384H623ZM623 288H622V384H623H624V288H623ZM623 384V383H527V384V385H623V384Z" fill="#A3B0C4" fill-opacity="0.1" mask="url(#path-111-inside-55_914_41029)"/>
<mask id="path-113-inside-56_914_41029" fill="white">
<path d="M623 288H719V384H623V288Z"/>
</mask>
<path d="M719 384V385H720V384H719ZM719 288H718V384H719H720V288H719ZM719 384V383H623V384V385H719V384Z" fill="#A3B0C4" fill-opacity="0.1" mask="url(#path-113-inside-56_914_41029)"/>
<mask id="path-115-inside-57_914_41029" fill="white">
<path d="M719 288H815V384H719V288Z"/>
</mask>
<path d="M815 384V385H816V384H815ZM815 288H814V384H815H816V288H815ZM815 384V383H719V384V385H815V384Z" fill="#A3B0C4" fill-opacity="0.1" mask="url(#path-115-inside-57_914_41029)"/>
<mask id="path-117-inside-58_914_41029" fill="white">
<path d="M815 288H911V384H815V288Z"/>
</mask>
<path d="M911 384V385H912V384H911ZM911 288H910V384H911H912V288H911ZM911 384V383H815V384V385H911V384Z" fill="#A3B0C4" fill-opacity="0.1" mask="url(#path-117-inside-58_914_41029)"/>
<mask id="path-119-inside-59_914_41029" fill="white">
<path d="M911 288H1007V384H911V288Z"/>
</mask>
<path d="M1007 384V385H1008V384H1007ZM1007 288H1006V384H1007H1008V288H1007ZM1007 384V383H911V384V385H1007V384Z" fill="#A3B0C4" fill-opacity="0.1" mask="url(#path-119-inside-59_914_41029)"/>
<mask id="path-121-inside-60_914_41029" fill="white">
<path d="M1007 288H1103V384H1007V288Z"/>
</mask>
<path d="M1103 384V385H1104V384H1103ZM1103 288H1102V384H1103H1104V288H1103ZM1103 384V383H1007V384V385H1103V384Z" fill="#A3B0C4" fill-opacity="0.1" mask="url(#path-121-inside-60_914_41029)"/>
<mask id="path-123-inside-61_914_41029" fill="white">
<path d="M1103 288H1199V384H1103V288Z"/>
</mask>
<path d="M1103 288H1199V384H1103V288Z" fill="#A4A4A4" fill-opacity="0.1"/>
<path d="M1199 384V385H1200V384H1199ZM1199 288H1198V384H1199H1200V288H1199ZM1199 384V383H1103V384V385H1199V384Z" fill="#A3B0C4" fill-opacity="0.1" mask="url(#path-123-inside-61_914_41029)"/>
<mask id="path-125-inside-62_914_41029" fill="white">
<path d="M1199 288H1295V384H1199V288Z"/>
</mask>
<path d="M1295 384V385H1296V384H1295ZM1295 288H1294V384H1295H1296V288H1295ZM1295 384V383H1199V384V385H1295V384Z" fill="#A3B0C4" fill-opacity="0.1" mask="url(#path-125-inside-62_914_41029)"/>
<mask id="path-127-inside-63_914_41029" fill="white">
<path d="M1295 288H1391V384H1295V288Z"/>
</mask>
<path d="M1391 384V385H1392V384H1391ZM1391 288H1390V384H1391H1392V288H1391ZM1391 384V383H1295V384V385H1391V384Z" fill="#A3B0C4" fill-opacity="0.1" mask="url(#path-127-inside-63_914_41029)"/>
<mask id="path-129-inside-64_914_41029" fill="white">
<path d="M1391 288H1487V384H1391V288Z"/>
</mask>
<path d="M1487 384V385H1488V384H1487ZM1487 288H1486V384H1487H1488V288H1487ZM1487 384V383H1391V384V385H1487V384Z" fill="#A3B0C4" fill-opacity="0.1" mask="url(#path-129-inside-64_914_41029)"/>
<mask id="path-131-inside-65_914_41029" fill="white">
<path d="M-49 384H47V480H-49V384Z"/>
</mask>
<path d="M47 480V481H48V480H47ZM47 384H46V480H47H48V384H47ZM47 480V479H-49V480V481H47V480Z" fill="#A3B0C4" fill-opacity="0.1" mask="url(#path-131-inside-65_914_41029)"/>
<mask id="path-133-inside-66_914_41029" fill="white">
<path d="M47 384H143V480H47V384Z"/>
</mask>
<path d="M143 480V481H144V480H143ZM143 384H142V480H143H144V384H143ZM143 480V479H47V480V481H143V480Z" fill="#A3B0C4" fill-opacity="0.1" mask="url(#path-133-inside-66_914_41029)"/>
<mask id="path-135-inside-67_914_41029" fill="white">
<path d="M143 384H239V480H143V384Z"/>
</mask>
<path d="M239 480V481H240V480H239ZM239 384H238V480H239H240V384H239ZM239 480V479H143V480V481H239V480Z" fill="#A3B0C4" fill-opacity="0.1" mask="url(#path-135-inside-67_914_41029)"/>
<mask id="path-137-inside-68_914_41029" fill="white">
<path d="M239 384H335V480H239V384Z"/>
</mask>
<path d="M335 480V481H336V480H335ZM335 384H334V480H335H336V384H335ZM335 480V479H239V480V481H335V480Z" fill="#A3B0C4" fill-opacity="0.1" mask="url(#path-137-inside-68_914_41029)"/>
<mask id="path-139-inside-69_914_41029" fill="white">
<path d="M335 384H431V480H335V384Z"/>
</mask>
<path d="M431 480V481H432V480H431ZM431 384H430V480H431H432V384H431ZM431 480V479H335V480V481H431V480Z" fill="#A3B0C4" fill-opacity="0.1" mask="url(#path-139-inside-69_914_41029)"/>
<mask id="path-141-inside-70_914_41029" fill="white">
<path d="M431 384H527V480H431V384Z"/>
</mask>
<path d="M527 480V481H528V480H527ZM527 384H526V480H527H528V384H527ZM527 480V479H431V480V481H527V480Z" fill="#A3B0C4" fill-opacity="0.1" mask="url(#path-141-inside-70_914_41029)"/>
<mask id="path-143-inside-71_914_41029" fill="white">
<path d="M527 384H623V480H527V384Z"/>
</mask>
<path d="M527 384H623V480H527V384Z" fill="#A4A4A4" fill-opacity="0.1"/>
<path d="M623 480V481H624V480H623ZM623 384H622V480H623H624V384H623ZM623 480V479H527V480V481H623V480Z" fill="#A3B0C4" fill-opacity="0.1" mask="url(#path-143-inside-71_914_41029)"/>
<mask id="path-145-inside-72_914_41029" fill="white">
<path d="M623 384H719V480H623V384Z"/>
</mask>
<path d="M719 480V481H720V480H719ZM719 384H718V480H719H720V384H719ZM719 480V479H623V480V481H719V480Z" fill="#A3B0C4" fill-opacity="0.1" mask="url(#path-145-inside-72_914_41029)"/>
<mask id="path-147-inside-73_914_41029" fill="white">
<path d="M719 384H815V480H719V384Z"/>
</mask>
<path d="M815 480V481H816V480H815ZM815 384H814V480H815H816V384H815ZM815 480V479H719V480V481H815V480Z" fill="#A3B0C4" fill-opacity="0.1" mask="url(#path-147-inside-73_914_41029)"/>
<mask id="path-149-inside-74_914_41029" fill="white">
<path d="M815 384H911V480H815V384Z"/>
</mask>
<path d="M911 480V481H912V480H911ZM911 384H910V480H911H912V384H911ZM911 480V479H815V480V481H911V480Z" fill="#A3B0C4" fill-opacity="0.1" mask="url(#path-149-inside-74_914_41029)"/>
<mask id="path-151-inside-75_914_41029" fill="white">
<path d="M911 384H1007V480H911V384Z"/>
</mask>
<path d="M1007 480V481H1008V480H1007ZM1007 384H1006V480H1007H1008V384H1007ZM1007 480V479H911V480V481H1007V480Z" fill="#A3B0C4" fill-opacity="0.1" mask="url(#path-151-inside-75_914_41029)"/>
<mask id="path-153-inside-76_914_41029" fill="white">
<path d="M1007 384H1103V480H1007V384Z"/>
</mask>
<path d="M1103 480V481H1104V480H1103ZM1103 384H1102V480H1103H1104V384H1103ZM1103 480V479H1007V480V481H1103V480Z" fill="#A3B0C4" fill-opacity="0.1" mask="url(#path-153-inside-76_914_41029)"/>
<mask id="path-155-inside-77_914_41029" fill="white">
<path d="M1103 384H1199V480H1103V384Z"/>
</mask>
<path d="M1199 480V481H1200V480H1199ZM1199 384H1198V480H1199H1200V384H1199ZM1199 480V479H1103V480V481H1199V480Z" fill="#A3B0C4" fill-opacity="0.1" mask="url(#path-155-inside-77_914_41029)"/>
<mask id="path-157-inside-78_914_41029" fill="white">
<path d="M1199 384H1295V480H1199V384Z"/>
</mask>
<path d="M1295 480V481H1296V480H1295ZM1295 384H1294V480H1295H1296V384H1295ZM1295 480V479H1199V480V481H1295V480Z" fill="#A3B0C4" fill-opacity="0.1" mask="url(#path-157-inside-78_914_41029)"/>
<mask id="path-159-inside-79_914_41029" fill="white">
<path d="M1295 384H1391V480H1295V384Z"/>
</mask>
<path d="M1391 480V481H1392V480H1391ZM1391 384H1390V480H1391H1392V384H1391ZM1391 480V479H1295V480V481H1391V480Z" fill="#A3B0C4" fill-opacity="0.1" mask="url(#path-159-inside-79_914_41029)"/>
<mask id="path-161-inside-80_914_41029" fill="white">
<path d="M1391 384H1487V480H1391V384Z"/>
</mask>
<path d="M1487 480V481H1488V480H1487ZM1487 384H1486V480H1487H1488V384H1487ZM1487 480V479H1391V480V481H1487V480Z" fill="#A3B0C4" fill-opacity="0.1" mask="url(#path-161-inside-80_914_41029)"/>
<mask id="path-163-inside-81_914_41029" fill="white">
<path d="M-49 480H47V576H-49V480Z"/>
</mask>
<path d="M47 576V577H48V576H47ZM47 480H46V576H47H48V480H47ZM47 576V575H-49V576V577H47V576Z" fill="#A3B0C4" fill-opacity="0.1" mask="url(#path-163-inside-81_914_41029)"/>
<mask id="path-165-inside-82_914_41029" fill="white">
<path d="M47 480H143V576H47V480Z"/>
</mask>
<path d="M143 576V577H144V576H143ZM143 480H142V576H143H144V480H143ZM143 576V575H47V576V577H143V576Z" fill="#A3B0C4" fill-opacity="0.1" mask="url(#path-165-inside-82_914_41029)"/>
<mask id="path-167-inside-83_914_41029" fill="white">
<path d="M143 480H239V576H143V480Z"/>
</mask>
<path d="M239 576V577H240V576H239ZM239 480H238V576H239H240V480H239ZM239 576V575H143V576V577H239V576Z" fill="#A3B0C4" fill-opacity="0.1" mask="url(#path-167-inside-83_914_41029)"/>
<mask id="path-169-inside-84_914_41029" fill="white">
<path d="M239 480H335V576H239V480Z"/>
</mask>
<path d="M239 480H335V576H239V480Z" fill="#A4A4A4" fill-opacity="0.1"/>
<path d="M335 576V577H336V576H335ZM335 480H334V576H335H336V480H335ZM335 576V575H239V576V577H335V576Z" fill="#A3B0C4" fill-opacity="0.1" mask="url(#path-169-inside-84_914_41029)"/>
<mask id="path-171-inside-85_914_41029" fill="white">
<path d="M335 480H431V576H335V480Z"/>
</mask>
<path d="M431 576V577H432V576H431ZM431 480H430V576H431H432V480H431ZM431 576V575H335V576V577H431V576Z" fill="#A3B0C4" fill-opacity="0.1" mask="url(#path-171-inside-85_914_41029)"/>
<mask id="path-173-inside-86_914_41029" fill="white">
<path d="M431 480H527V576H431V480Z"/>
</mask>
<path d="M527 576V577H528V576H527ZM527 480H526V576H527H528V480H527ZM527 576V575H431V576V577H527V576Z" fill="#A3B0C4" fill-opacity="0.1" mask="url(#path-173-inside-86_914_41029)"/>
<mask id="path-175-inside-87_914_41029" fill="white">
<path d="M527 480H623V576H527V480Z"/>
</mask>
<path d="M623 576V577H624V576H623ZM623 480H622V576H623H624V480H623ZM623 576V575H527V576V577H623V576Z" fill="#A3B0C4" fill-opacity="0.1" mask="url(#path-175-inside-87_914_41029)"/>
<mask id="path-177-inside-88_914_41029" fill="white">
<path d="M623 480H719V576H623V480Z"/>
</mask>
<path d="M719 576V577H720V576H719ZM719 480H718V576H719H720V480H719ZM719 576V575H623V576V577H719V576Z" fill="#A3B0C4" fill-opacity="0.1" mask="url(#path-177-inside-88_914_41029)"/>
<mask id="path-179-inside-89_914_41029" fill="white">
<path d="M719 480H815V576H719V480Z"/>
</mask>
<path d="M815 576V577H816V576H815ZM815 480H814V576H815H816V480H815ZM815 576V575H719V576V577H815V576Z" fill="#A3B0C4" fill-opacity="0.1" mask="url(#path-179-inside-89_914_41029)"/>
<mask id="path-181-inside-90_914_41029" fill="white">
<path d="M815 480H911V576H815V480Z"/>
</mask>
<path d="M815 480H911V576H815V480Z" fill="#A4A4A4" fill-opacity="0.1"/>
<path d="M911 576V577H912V576H911ZM911 480H910V576H911H912V480H911ZM911 576V575H815V576V577H911V576Z" fill="#A3B0C4" fill-opacity="0.1" mask="url(#path-181-inside-90_914_41029)"/>
<mask id="path-183-inside-91_914_41029" fill="white">
<path d="M911 480H1007V576H911V480Z"/>
</mask>
<path d="M1007 576V577H1008V576H1007ZM1007 480H1006V576H1007H1008V480H1007ZM1007 576V575H911V576V577H1007V576Z" fill="#A3B0C4" fill-opacity="0.1" mask="url(#path-183-inside-91_914_41029)"/>
<mask id="path-185-inside-92_914_41029" fill="white">
<path d="M1007 480H1103V576H1007V480Z"/>
</mask>
<path d="M1103 576V577H1104V576H1103ZM1103 480H1102V576H1103H1104V480H1103ZM1103 576V575H1007V576V577H1103V576Z" fill="#A3B0C4" fill-opacity="0.1" mask="url(#path-185-inside-92_914_41029)"/>
<mask id="path-187-inside-93_914_41029" fill="white">
<path d="M1103 480H1199V576H1103V480Z"/>
</mask>
<path d="M1199 576V577H1200V576H1199ZM1199 480H1198V576H1199H1200V480H1199ZM1199 576V575H1103V576V577H1199V576Z" fill="#A3B0C4" fill-opacity="0.1" mask="url(#path-187-inside-93_914_41029)"/>
<mask id="path-189-inside-94_914_41029" fill="white">
<path d="M1199 480H1295V576H1199V480Z"/>
</mask>
<path d="M1295 576V577H1296V576H1295ZM1295 480H1294V576H1295H1296V480H1295ZM1295 576V575H1199V576V577H1295V576Z" fill="#A3B0C4" fill-opacity="0.1" mask="url(#path-189-inside-94_914_41029)"/>
<mask id="path-191-inside-95_914_41029" fill="white">
<path d="M1295 480H1391V576H1295V480Z"/>
</mask>
<path d="M1391 576V577H1392V576H1391ZM1391 480H1390V576H1391H1392V480H1391ZM1391 576V575H1295V576V577H1391V576Z" fill="#A3B0C4" fill-opacity="0.1" mask="url(#path-191-inside-95_914_41029)"/>
<mask id="path-193-inside-96_914_41029" fill="white">
<path d="M1391 480H1487V576H1391V480Z"/>
</mask>
<path d="M1487 576V577H1488V576H1487ZM1487 480H1486V576H1487H1488V480H1487ZM1487 576V575H1391V576V577H1487V576Z" fill="#A3B0C4" fill-opacity="0.1" mask="url(#path-193-inside-96_914_41029)"/>
<mask id="path-195-inside-97_914_41029" fill="white">
<path d="M-49 576H47V672H-49V576Z"/>
</mask>
<path d="M47 672V673H48V672H47ZM47 576H46V672H47H48V576H47ZM47 672V671H-49V672V673H47V672Z" fill="#A3B0C4" fill-opacity="0.1" mask="url(#path-195-inside-97_914_41029)"/>
<mask id="path-197-inside-98_914_41029" fill="white">
<path d="M47 576H143V672H47V576Z"/>
</mask>
<path d="M47 576H143V672H47V576Z" fill="#A4A4A4" fill-opacity="0.1"/>
<path d="M143 672V673H144V672H143ZM143 576H142V672H143H144V576H143ZM143 672V671H47V672V673H143V672Z" fill="#A3B0C4" fill-opacity="0.1" mask="url(#path-197-inside-98_914_41029)"/>
<mask id="path-199-inside-99_914_41029" fill="white">
<path d="M143 576H239V672H143V576Z"/>
</mask>
<path d="M239 672V673H240V672H239ZM239 576H238V672H239H240V576H239ZM239 672V671H143V672V673H239V672Z" fill="#A3B0C4" fill-opacity="0.1" mask="url(#path-199-inside-99_914_41029)"/>
<mask id="path-201-inside-100_914_41029" fill="white">
<path d="M239 576H335V672H239V576Z"/>
</mask>
<path d="M335 672V673H336V672H335ZM335 576H334V672H335H336V576H335ZM335 672V671H239V672V673H335V672Z" fill="#A3B0C4" fill-opacity="0.1" mask="url(#path-201-inside-100_914_41029)"/>
<mask id="path-203-inside-101_914_41029" fill="white">
<path d="M335 576H431V672H335V576Z"/>
</mask>
<path d="M431 672V673H432V672H431ZM431 576H430V672H431H432V576H431ZM431 672V671H335V672V673H431V672Z" fill="#A3B0C4" fill-opacity="0.1" mask="url(#path-203-inside-101_914_41029)"/>
<mask id="path-205-inside-102_914_41029" fill="white">
<path d="M431 576H527V672H431V576Z"/>
</mask>
<path d="M527 672V673H528V672H527ZM527 576H526V672H527H528V576H527ZM527 672V671H431V672V673H527V672Z" fill="#A3B0C4" fill-opacity="0.1" mask="url(#path-205-inside-102_914_41029)"/>
<mask id="path-207-inside-103_914_41029" fill="white">
<path d="M527 576H623V672H527V576Z"/>
</mask>
<path d="M623 672V673H624V672H623ZM623 576H622V672H623H624V576H623ZM623 672V671H527V672V673H623V672Z" fill="#A3B0C4" fill-opacity="0.1" mask="url(#path-207-inside-103_914_41029)"/>
<mask id="path-209-inside-104_914_41029" fill="white">
<path d="M623 576H719V672H623V576Z"/>
</mask>
<path d="M719 672V673H720V672H719ZM719 576H718V672H719H720V576H719ZM719 672V671H623V672V673H719V672Z" fill="#A3B0C4" fill-opacity="0.1" mask="url(#path-209-inside-104_914_41029)"/>
<mask id="path-211-inside-105_914_41029" fill="white">
<path d="M719 576H815V672H719V576Z"/>
</mask>
<path d="M815 672V673H816V672H815ZM815 576H814V672H815H816V576H815ZM815 672V671H719V672V673H815V672Z" fill="#A3B0C4" fill-opacity="0.1" mask="url(#path-211-inside-105_914_41029)"/>
<mask id="path-213-inside-106_914_41029" fill="white">
<path d="M815 576H911V672H815V576Z"/>
</mask>
<path d="M911 672V673H912V672H911ZM911 576H910V672H911H912V576H911ZM911 672V671H815V672V673H911V672Z" fill="#A3B0C4" fill-opacity="0.1" mask="url(#path-213-inside-106_914_41029)"/>
<mask id="path-215-inside-107_914_41029" fill="white">
<path d="M911 576H1007V672H911V576Z"/>
</mask>
<path d="M1007 672V673H1008V672H1007ZM1007 576H1006V672H1007H1008V576H1007ZM1007 672V671H911V672V673H1007V672Z" fill="#A3B0C4" fill-opacity="0.1" mask="url(#path-215-inside-107_914_41029)"/>
<mask id="path-217-inside-108_914_41029" fill="white">
<path d="M1007 576H1103V672H1007V576Z"/>
</mask>
<path d="M1103 672V673H1104V672H1103ZM1103 576H1102V672H1103H1104V576H1103ZM1103 672V671H1007V672V673H1103V672Z" fill="#A3B0C4" fill-opacity="0.1" mask="url(#path-217-inside-108_914_41029)"/>
<mask id="path-219-inside-109_914_41029" fill="white">
<path d="M1103 576H1199V672H1103V576Z"/>
</mask>
<path d="M1199 672V673H1200V672H1199ZM1199 576H1198V672H1199H1200V576H1199ZM1199 672V671H1103V672V673H1199V672Z" fill="#A3B0C4" fill-opacity="0.1" mask="url(#path-219-inside-109_914_41029)"/>
<mask id="path-221-inside-110_914_41029" fill="white">
<path d="M1199 576H1295V672H1199V576Z"/>
</mask>
<path d="M1295 672V673H1296V672H1295ZM1295 576H1294V672H1295H1296V576H1295ZM1295 672V671H1199V672V673H1295V672Z" fill="#A3B0C4" fill-opacity="0.1" mask="url(#path-221-inside-110_914_41029)"/>
<mask id="path-223-inside-111_914_41029" fill="white">
<path d="M1295 576H1391V672H1295V576Z"/>
</mask>
<path d="M1295 576H1391V672H1295V576Z" fill="#A4A4A4" fill-opacity="0.1"/>
<path d="M1391 672V673H1392V672H1391ZM1391 576H1390V672H1391H1392V576H1391ZM1391 672V671H1295V672V673H1391V672Z" fill="#A3B0C4" fill-opacity="0.1" mask="url(#path-223-inside-111_914_41029)"/>
<mask id="path-225-inside-112_914_41029" fill="white">
<path d="M1391 576H1487V672H1391V576Z"/>
</mask>
<path d="M1487 672V673H1488V672H1487ZM1487 576H1486V672H1487H1488V576H1487ZM1487 672V671H1391V672V673H1487V672Z" fill="#A3B0C4" fill-opacity="0.1" mask="url(#path-225-inside-112_914_41029)"/>
<mask id="path-227-inside-113_914_41029" fill="white">
<path d="M-49 672H47V768H-49V672Z"/>
</mask>
<path d="M47 768V769H48V768H47ZM47 672H46V768H47H48V672H47ZM47 768V767H-49V768V769H47V768Z" fill="#A3B0C4" fill-opacity="0.1" mask="url(#path-227-inside-113_914_41029)"/>
<mask id="path-229-inside-114_914_41029" fill="white">
<path d="M47 672H143V768H47V672Z"/>
</mask>
<path d="M143 768V769H144V768H143ZM143 672H142V768H143H144V672H143ZM143 768V767H47V768V769H143V768Z" fill="#A3B0C4" fill-opacity="0.1" mask="url(#path-229-inside-114_914_41029)"/>
<mask id="path-231-inside-115_914_41029" fill="white">
<path d="M143 672H239V768H143V672Z"/>
</mask>
<path d="M239 768V769H240V768H239ZM239 672H238V768H239H240V672H239ZM239 768V767H143V768V769H239V768Z" fill="#A3B0C4" fill-opacity="0.1" mask="url(#path-231-inside-115_914_41029)"/>
<mask id="path-233-inside-116_914_41029" fill="white">
<path d="M239 672H335V768H239V672Z"/>
</mask>
<path d="M335 768V769H336V768H335ZM335 672H334V768H335H336V672H335ZM335 768V767H239V768V769H335V768Z" fill="#A3B0C4" fill-opacity="0.1" mask="url(#path-233-inside-116_914_41029)"/>
<mask id="path-235-inside-117_914_41029" fill="white">
<path d="M335 672H431V768H335V672Z"/>
</mask>
<path d="M431 768V769H432V768H431ZM431 672H430V768H431H432V672H431ZM431 768V767H335V768V769H431V768Z" fill="#A3B0C4" fill-opacity="0.1" mask="url(#path-235-inside-117_914_41029)"/>
<mask id="path-237-inside-118_914_41029" fill="white">
<path d="M431 672H527V768H431V672Z"/>
</mask>
<path d="M527 768V769H528V768H527ZM527 672H526V768H527H528V672H527ZM527 768V767H431V768V769H527V768Z" fill="#A3B0C4" fill-opacity="0.1" mask="url(#path-237-inside-118_914_41029)"/>
<mask id="path-239-inside-119_914_41029" fill="white">
<path d="M527 672H623V768H527V672Z"/>
</mask>
<path d="M527 672H623V768H527V672Z" fill="#A4A4A4" fill-opacity="0.1"/>
<path d="M623 768V769H624V768H623ZM623 672H622V768H623H624V672H623ZM623 768V767H527V768V769H623V768Z" fill="#A3B0C4" fill-opacity="0.1" mask="url(#path-239-inside-119_914_41029)"/>
<mask id="path-241-inside-120_914_41029" fill="white">
<path d="M623 672H719V768H623V672Z"/>
</mask>
<path d="M719 768V769H720V768H719ZM719 672H718V768H719H720V672H719ZM719 768V767H623V768V769H719V768Z" fill="#A3B0C4" fill-opacity="0.1" mask="url(#path-241-inside-120_914_41029)"/>
<mask id="path-243-inside-121_914_41029" fill="white">
<path d="M719 672H815V768H719V672Z"/>
</mask>
<path d="M815 768V769H816V768H815ZM815 672H814V768H815H816V672H815ZM815 768V767H719V768V769H815V768Z" fill="#A3B0C4" fill-opacity="0.1" mask="url(#path-243-inside-121_914_41029)"/>
<mask id="path-245-inside-122_914_41029" fill="white">
<path d="M815 672H911V768H815V672Z"/>
</mask>
<path d="M911 768V769H912V768H911ZM911 672H910V768H911H912V672H911ZM911 768V767H815V768V769H911V768Z" fill="#A3B0C4" fill-opacity="0.1" mask="url(#path-245-inside-122_914_41029)"/>
<mask id="path-247-inside-123_914_41029" fill="white">
<path d="M911 672H1007V768H911V672Z"/>
</mask>
<path d="M1007 768V769H1008V768H1007ZM1007 672H1006V768H1007H1008V672H1007ZM1007 768V767H911V768V769H1007V768Z" fill="#A3B0C4" fill-opacity="0.1" mask="url(#path-247-inside-123_914_41029)"/>
<mask id="path-249-inside-124_914_41029" fill="white">
<path d="M1007 672H1103V768H1007V672Z"/>
</mask>
<path d="M1103 768V769H1104V768H1103ZM1103 672H1102V768H1103H1104V672H1103ZM1103 768V767H1007V768V769H1103V768Z" fill="#A3B0C4" fill-opacity="0.1" mask="url(#path-249-inside-124_914_41029)"/>
<mask id="path-251-inside-125_914_41029" fill="white">
<path d="M1103 672H1199V768H1103V672Z"/>
</mask>
<path d="M1103 672H1199V768H1103V672Z" fill="#A4A4A4" fill-opacity="0.1"/>
<path d="M1199 768V769H1200V768H1199ZM1199 672H1198V768H1199H1200V672H1199ZM1199 768V767H1103V768V769H1199V768Z" fill="#A3B0C4" fill-opacity="0.1" mask="url(#path-251-inside-125_914_41029)"/>
<mask id="path-253-inside-126_914_41029" fill="white">
<path d="M1199 672H1295V768H1199V672Z"/>
</mask>
<path d="M1295 768V769H1296V768H1295ZM1295 672H1294V768H1295H1296V672H1295ZM1295 768V767H1199V768V769H1295V768Z" fill="#A3B0C4" fill-opacity="0.1" mask="url(#path-253-inside-126_914_41029)"/>
<mask id="path-255-inside-127_914_41029" fill="white">
<path d="M1295 672H1391V768H1295V672Z"/>
</mask>
<path d="M1391 768V769H1392V768H1391ZM1391 672H1390V768H1391H1392V672H1391ZM1391 768V767H1295V768V769H1391V768Z" fill="#A3B0C4" fill-opacity="0.1" mask="url(#path-255-inside-127_914_41029)"/>
<mask id="path-257-inside-128_914_41029" fill="white">
<path d="M1391 672H1487V768H1391V672Z"/>
</mask>
<path d="M1487 768V769H1488V768H1487ZM1487 672H1486V768H1487H1488V672H1487ZM1487 768V767H1391V768V769H1487V768Z" fill="#A3B0C4" fill-opacity="0.1" mask="url(#path-257-inside-128_914_41029)"/>
</g>
<rect x="-240.5" y="0.5" width="1919" height="1439" stroke="#A3B0C4" stroke-opacity="0.1"/>
<defs>
<clipPath id="clip0_914_41029">
<rect x="-241" width="1920" height="1440" fill="white"/>
</clipPath>
</defs>
</svg>
