<svg width="980" height="228" viewBox="0 0 980 228" fill="none" xmlns="http://www.w3.org/2000/svg">
<path d="M17.2423 47.156H18.4873C22.8094 47.25 27.0611 48.9882 30.1148 52.0654C28.9873 53.2164 27.8363 54.3204 26.7322 55.4714C25.0175 53.9211 22.9503 52.7231 20.6953 52.3003C17.3597 51.5956 13.7658 52.2298 10.9705 54.1325C7.91679 56.1292 5.84968 59.5117 5.40337 63.1292C4.91008 66.6996 5.92015 70.458 8.24565 73.2298C10.4772 75.9312 13.8832 77.6224 17.4067 77.7399C20.6953 77.9278 24.1248 76.9178 26.5208 74.6157C28.4 72.9949 29.2691 70.5285 29.551 68.1325C25.6517 68.1325 21.7524 68.156 17.853 68.1325V63.2936H34.2725C35.1181 68.4849 33.8967 74.3339 29.9504 78.0453C27.3195 80.6761 23.6785 82.2265 19.9671 82.5318C16.3732 82.8842 12.6618 82.203 9.46713 80.4647C5.63827 78.4211 2.58458 74.9681 1.08122 70.9043C-0.328176 67.1694 -0.351665 62.9412 0.963771 59.1829C2.16176 55.7533 4.46377 52.7231 7.4235 50.609C10.2658 48.5184 13.7188 47.3674 17.2423 47.156Z" fill="#494949"/>
<path d="M111.436 48.3774H116.462V81.9211C114.795 81.9211 113.103 81.9446 111.436 81.8976C111.459 70.7399 111.436 59.5586 111.436 48.3774Z" fill="#494949"/>
<path d="M45.4522 60.005C48.5529 59.4178 51.9119 60.0755 54.4723 61.9312C56.7978 63.5755 58.4186 66.1594 58.9119 68.9782C59.5462 72.2433 58.7475 75.8137 56.6334 78.3976C54.3549 81.2869 50.62 82.8372 46.979 82.6023C43.6435 82.4144 40.4019 80.7466 38.4287 78.0218C36.1972 75.0151 35.6569 70.8808 36.8784 67.3574C38.0998 63.5755 41.5529 60.6862 45.4522 60.005ZM46.1569 64.4681C44.8884 64.7969 43.7139 65.5251 42.8683 66.5587C40.5898 69.2835 40.7307 73.7231 43.2441 76.26C44.677 77.7164 46.8381 78.3976 48.8347 77.9983C50.6904 77.6694 52.3113 76.4245 53.2039 74.7802C54.7542 71.9849 54.3079 68.1325 51.9354 65.948C50.4086 64.5386 48.177 63.9513 46.1569 64.4681Z" fill="#494949"/>
<path d="M70.353 60.005C73.9 59.3238 77.7758 60.3104 80.4302 62.8003C84.7523 66.6762 85.2221 73.9346 81.5342 78.3976C79.3027 81.2164 75.6852 82.7668 72.1148 82.6023C68.7087 82.5084 65.3497 80.8171 63.3295 78.0218C61.051 74.9446 60.5577 70.7164 61.8497 67.1225C63.1416 63.458 66.5242 60.6627 70.353 60.005ZM71.0577 64.4681C69.7893 64.797 68.6148 65.5252 67.7691 66.5352C65.5141 69.2131 65.608 73.5822 68.0275 76.1426C69.4604 77.6695 71.6919 78.4211 73.7591 77.9983C75.5913 77.646 77.2356 76.4245 78.1282 74.7802C79.655 71.9614 79.2087 68.1091 76.8127 65.9245C75.2859 64.5151 73.0544 63.9513 71.0577 64.4681Z" fill="#494949"/>
<path d="M91.4706 61.3674C94.1719 59.6762 97.7659 59.2064 100.679 60.6627C101.595 61.0621 102.346 61.7433 103.075 62.4245C103.098 61.7903 103.075 61.1325 103.098 60.4748C104.672 60.4983 106.246 60.4748 107.843 60.4983V81.2164C107.82 84.3406 107.021 87.6527 104.766 89.9312C102.299 92.4446 98.5176 93.2198 95.1115 92.703C91.4706 92.1627 88.2995 89.5084 86.8901 86.1493C88.2995 85.4681 89.7793 84.9278 91.2357 84.2936C92.0578 86.2198 93.7256 87.8641 95.8162 88.2399C97.9068 88.6158 100.326 88.099 101.689 86.3607C103.145 84.5755 103.145 82.1325 103.075 79.948C101.994 81.005 100.749 81.9446 99.2458 82.297C95.9807 83.2131 92.3867 82.0856 89.8733 79.8775C87.3364 77.6695 85.833 74.2634 85.974 70.8809C86.0444 67.052 88.2055 63.3641 91.4706 61.3674ZM96.333 64.3742C94.9001 64.609 93.5612 65.4077 92.6451 66.5117C90.437 69.1426 90.437 73.3473 92.6686 75.9312C93.937 77.458 95.9807 78.3037 97.9538 78.0923C99.8095 77.9044 101.524 76.7299 102.44 75.1091C103.991 72.3607 103.732 68.6258 101.642 66.2299C100.35 64.75 98.2827 64.0218 96.333 64.3742Z" fill="#494949"/>
<path d="M122.499 62.5654C125.318 59.9346 129.663 59.0419 133.281 60.4279C136.71 61.7198 138.895 64.9849 139.999 68.344C134.902 70.4581 129.828 72.5487 124.731 74.6628C125.435 76.0017 126.516 77.2232 127.972 77.7164C130.016 78.4446 132.459 78.1862 134.174 76.8238C134.855 76.3071 135.395 75.6258 135.912 74.9681C137.204 75.8373 138.496 76.6829 139.788 77.552C137.955 80.3003 134.878 82.2265 131.566 82.5319C127.902 82.9782 124.002 81.5688 121.63 78.703C117.731 74.193 118.106 66.6292 122.499 62.5654ZM125.012 66.9111C124.214 68.0621 123.885 69.4715 123.908 70.8574C127.314 69.448 130.721 68.0386 134.127 66.6057C133.563 65.2903 132.2 64.4916 130.814 64.2802C128.583 63.8809 126.257 65.0789 125.012 66.9111Z" fill="#494949"/>
<path fill-rule="evenodd" clip-rule="evenodd" d="M229.167 60.4882V64.265C227.371 63.6368 225.404 63.27 223.836 63.27C221.9 63.27 220.823 63.8597 220.823 64.9194C220.823 65.5956 221.295 66.0437 222.647 66.6517L226.284 68.2837C229.194 69.591 230.66 71.4983 230.66 73.9765C230.66 77.8012 227.35 80.214 222.102 80.214C220.188 80.214 217.975 79.9402 215.629 79.41V75.5061C217.954 76.1387 220.084 76.4764 221.741 76.4764C223.91 76.4764 225.072 75.8721 225.072 74.7456C225.072 74.0687 224.618 73.5712 223.579 73.1071L219.598 71.3342C216.647 70.0181 215.285 68.2452 215.285 65.7176C215.285 62.0955 218.476 59.7859 223.482 59.7859C225.234 59.7859 227.391 60.0524 229.167 60.4882ZM233.493 60.1817H239.375V79.8182H233.493V60.1817ZM258.501 60.1817V63.7791H249.621V68.2081H257.378V71.462H249.621V76.0537H258.616V79.8182H243.905V60.1817H258.501ZM286.291 60.1817V79.8182H280.6V66.8935L275.025 79.9714H271.426L265.889 66.8935V79.8182H261.959V60.1817H269.142L274.221 72.1258L279.273 60.1817H286.291ZM305.432 60.1817V63.7791H296.539V68.2081H304.294V71.462H296.539V76.0537H305.532V79.8182H290.808V60.1817H305.432ZM326.152 60.1817V79.8182H319.874L312.806 67.224V79.8182H308.875V60.1817H315.318L322.235 72.6096V60.1817H326.152ZM343.223 60.4882V64.265C341.44 63.6411 339.46 63.27 337.921 63.27C335.955 63.27 334.879 63.8503 334.879 64.9136C334.879 65.6065 335.318 66.0205 336.717 66.6524L340.338 68.2844C343.269 69.6056 344.717 71.4961 344.717 74.0033C344.717 77.8077 341.404 80.2154 336.168 80.2154C334.251 80.2154 332.029 79.9402 329.686 79.4114V75.5075C332.008 76.1387 334.134 76.4779 335.779 76.4779C337.934 76.4779 339.128 75.8736 339.128 74.7827C339.128 74.0607 338.71 73.5952 337.621 73.1085L333.656 71.3356C330.687 70.0094 329.341 68.2568 329.341 65.7198C329.341 62.0999 332.533 59.7888 337.527 59.7888C339.285 59.7866 341.45 60.0524 343.223 60.4882Z" fill="#494949"/>
<path d="M559.999 68.5772V66.1151H556.942V62.2874L556.839 62.3191L553.967 63.1978L553.91 63.215V66.1152H549.378V64.4995C549.378 63.7472 549.546 63.1715 549.877 62.7876C550.207 62.4082 550.678 62.2154 551.278 62.2154C551.71 62.2154 552.157 62.3171 552.607 62.5177L552.72 62.568V59.9751L552.667 59.9556C552.247 59.8047 551.676 59.7288 550.968 59.7288C550.077 59.7288 549.266 59.9228 548.56 60.3075C547.853 60.6926 547.296 61.2425 546.907 61.9415C546.519 62.6398 546.321 63.4463 546.321 64.3388V66.1151H544.193V68.5772H546.321V78.9496H549.378V68.5772H553.91V75.1687C553.91 77.8834 555.191 79.2591 557.716 79.2591C558.131 79.2591 558.568 79.2105 559.014 79.1153C559.468 79.0175 559.777 78.9198 559.959 78.8156L559.999 78.7917V76.3069L559.875 76.3891C559.709 76.4996 559.503 76.5899 559.26 76.6571C559.017 76.7255 558.814 76.7597 558.657 76.7597C558.065 76.7597 557.627 76.6003 557.356 76.2857C557.081 75.9683 556.942 75.4132 556.942 74.6366V68.5772H559.999ZM537.367 76.7601C536.258 76.7601 535.383 76.3923 534.767 75.6678C534.147 74.9396 533.833 73.9013 533.833 72.5823C533.833 71.2213 534.147 70.1562 534.767 69.4151C535.384 68.6789 536.25 68.3053 537.342 68.3053C538.402 68.3053 539.246 68.6621 539.85 69.3665C540.457 70.0745 540.766 71.1311 540.766 72.5079C540.766 73.9016 540.476 74.9722 539.904 75.6883C539.337 76.3991 538.483 76.7601 537.367 76.7601ZM537.503 65.8059C535.387 65.8059 533.706 66.426 532.507 67.6491C531.31 68.8723 530.702 70.565 530.702 72.6807C530.702 74.6902 531.295 76.3066 532.464 77.4841C533.634 78.6621 535.225 79.2588 537.194 79.2588C539.245 79.2588 540.893 78.63 542.091 77.39C543.289 76.1514 543.896 74.4746 543.896 72.4084C543.896 70.3674 543.326 68.739 542.202 67.5693C541.078 66.3991 539.497 65.8059 537.503 65.8059ZM525.775 65.8059C524.335 65.8059 523.144 66.1741 522.235 66.9002C521.319 67.6305 520.855 68.5884 520.855 69.7476C520.855 70.3501 520.955 70.8853 521.153 71.3393C521.351 71.7947 521.658 72.1957 522.066 72.5323C522.471 72.8661 523.096 73.2158 523.924 73.5716C524.62 73.858 525.139 74.1003 525.469 74.2913C525.791 74.4784 526.02 74.6665 526.149 74.8498C526.274 75.0291 526.338 75.2745 526.338 75.5773C526.338 76.4396 525.692 76.8591 524.364 76.8591C523.871 76.8591 523.309 76.7562 522.693 76.5533C522.081 76.3535 521.504 76.0609 520.982 75.6858L520.855 75.5948V78.5372L520.901 78.5589C521.334 78.7585 521.879 78.9269 522.522 79.0593C523.163 79.1919 523.746 79.2594 524.252 79.2594C525.814 79.2594 527.072 78.8894 527.99 78.159C528.914 77.4236 529.382 76.4431 529.382 75.2439C529.382 74.3787 529.13 73.6369 528.633 73.0385C528.14 72.4451 527.284 71.9002 526.089 71.4187C525.138 71.0367 524.528 70.7197 524.277 70.4763C524.034 70.2412 523.911 69.9087 523.911 69.4877C523.911 69.1144 524.063 68.8154 524.375 68.5733C524.689 68.3299 525.127 68.2061 525.676 68.2061C526.185 68.2061 526.706 68.2866 527.224 68.4442C527.742 68.6018 528.197 68.813 528.576 69.0712L528.701 69.1566V66.3654L528.653 66.3448C528.303 66.1946 527.841 66.0661 527.28 65.9618C526.722 65.8582 526.215 65.8059 525.775 65.8059ZM512.888 76.7601C511.779 76.7601 510.904 76.3923 510.288 75.6678C509.667 74.9396 509.354 73.9016 509.354 72.5823C509.354 71.2213 509.668 70.1562 510.288 69.4151C510.904 68.6789 511.77 68.3053 512.863 68.3053C513.922 68.3053 514.766 68.6621 515.37 69.3665C515.978 70.0745 516.286 71.1311 516.286 72.5079C516.286 73.9016 515.996 74.9722 515.425 75.6883C514.857 76.3991 514.004 76.7601 512.888 76.7601ZM513.024 65.8059C510.907 65.8059 509.226 66.426 508.028 67.6491C506.83 68.8723 506.223 70.565 506.223 72.6807C506.223 74.691 506.816 76.3066 507.985 77.4841C509.154 78.6621 510.746 79.2588 512.714 79.2588C514.766 79.2588 516.413 78.63 517.611 77.39C518.809 76.1514 519.416 74.4746 519.416 72.4084C519.416 70.3674 518.847 68.739 517.723 67.5693C516.598 66.3991 515.017 65.8059 513.024 65.8059ZM501.583 68.3378V66.1151H498.564V78.9494H501.583V72.3841C501.583 71.2678 501.836 70.3507 502.336 69.6579C502.829 68.9735 503.486 68.6266 504.288 68.6266C504.56 68.6266 504.866 68.6715 505.196 68.7602C505.523 68.8483 505.76 68.9441 505.9 69.0448L506.027 69.1368V66.0931L505.978 66.0722C505.697 65.9527 505.299 65.8924 504.796 65.8924C504.037 65.8924 503.358 66.1362 502.777 66.6162C502.266 67.038 501.898 67.6165 501.615 68.3378H501.583ZM493.158 65.8059C491.773 65.8059 490.537 66.1029 489.487 66.6884C488.434 67.2752 487.619 68.1129 487.065 69.1782C486.514 70.241 486.234 71.4823 486.234 72.8667C486.234 74.0793 486.505 75.1921 487.042 76.1729C487.579 77.1553 488.339 77.9239 489.301 78.4569C490.262 78.9893 491.372 79.2592 492.601 79.2592C494.036 79.2592 495.261 78.9724 496.243 78.4067L496.283 78.3839V75.6181L496.156 75.7107C495.711 76.0348 495.214 76.2934 494.679 76.4798C494.146 76.666 493.659 76.7601 493.232 76.7601C492.048 76.7601 491.097 76.3895 490.407 75.6587C489.715 74.927 489.364 73.8995 489.364 72.6065C489.364 71.3054 489.73 70.2515 490.451 69.4739C491.169 68.6985 492.122 68.3053 493.282 68.3053C494.275 68.3053 495.242 68.6413 496.156 69.3049L496.283 69.3968V66.4825L496.242 66.4595C495.898 66.2668 495.428 66.1076 494.845 65.987C494.265 65.8666 493.697 65.8059 493.158 65.8059ZM484.154 66.1152H481.135V78.9494H484.154V66.1152ZM482.676 60.6478C482.179 60.6478 481.745 60.8169 481.389 61.1521C481.032 61.4883 480.85 61.9115 480.85 62.4109C480.85 62.9026 481.03 63.3181 481.384 63.6453C481.736 63.9715 482.17 64.1369 482.676 64.1369C483.181 64.1369 483.617 63.9715 483.974 63.6458C484.332 63.3181 484.514 62.9027 484.514 62.4109C484.514 61.929 484.337 61.5101 483.988 61.1657C483.64 60.8219 483.198 60.6478 482.676 60.6478ZM475.143 65.1683V78.9494H478.224V61.0407H473.96L468.54 74.3427L463.28 61.0407H458.842V78.9492H461.737V65.1669H461.837L467.391 78.9494H469.576L475.044 65.1683H475.143Z" fill="#494949"/>
<path d="M434.202 69.2585H420V55.0563H434.202V69.2585Z" fill="#494949"/>
<path d="M449.884 69.2586H435.682V55.0564H449.884V69.2586Z" fill="#494949"/>
<path d="M434.202 84.9449H420V70.7428H434.202V84.9449Z" fill="#494949"/>
<path d="M449.884 84.945H435.682V70.7429H449.884V84.945Z" fill="#494949"/>
<g clip-path="url(#clip0_921_10187)">
<path d="M679.744 65.483C679.744 61.3185 682.781 58.4106 688.299 58.4106C691.666 58.4106 694.421 59.4856 695.913 60.5386C696.127 60.689 696.508 61.0538 696.279 61.7322C695.987 62.4629 695.449 63.5618 695.064 64.2756C694.84 64.6915 694.267 64.6367 693.974 64.4881C692.911 63.9493 691.167 63.0379 689.565 62.8699C689.159 62.8257 688.751 62.808 688.343 62.817C686.932 62.8485 685.754 63.3383 685.339 64.4147C685.257 64.6184 685.212 64.8346 685.205 65.0538C685.166 66.4722 687.14 66.9851 689.531 67.396C693.977 68.1576 697.34 69.4611 697.34 74.0369C697.34 77.9229 694.252 81.4347 688.201 81.3271C684.212 81.2464 681.382 79.8986 679.865 78.5906C679.814 78.5462 679.236 77.9583 679.546 77.2512C679.9 76.3409 680.498 75.2977 680.967 74.7437C681.228 74.3879 681.916 74.3315 682.274 74.5532C683.524 75.33 685.581 76.5756 687.952 76.6582C688.139 76.6646 688.325 76.6658 688.507 76.661C690.64 76.6093 691.931 75.8004 691.904 74.438C691.881 73.2377 690.189 72.5365 687.496 72.0289C683.201 71.2198 679.745 69.8039 679.745 65.483M718.768 71.4126C715.739 71.4522 712.961 72.2802 712.881 74.6473C712.88 76.5258 714.404 77.4485 716.543 77.3276C718.594 77.13 720.159 76.2403 720.848 75.0596C721.103 74.6221 721.142 72.9847 721.127 72.2849C721.123 72.136 720.828 71.8541 720.699 71.7999C720.056 71.5287 719.579 71.4449 718.767 71.412M708.689 61.8741C710.105 60.6066 712.914 58.6338 717.389 58.7377C723.296 58.8606 726.416 61.6296 726.707 68.2537C726.827 70.9854 726.628 78.6049 726.581 80.5033C726.574 80.7757 726.482 80.964 726.115 80.971C725.142 81.0101 722.895 80.9946 721.862 80.9811C721.341 80.9558 721.281 80.6973 721.274 80.4266C721.27 80.2496 721.254 79.7246 721.244 79.2966C721.238 79.0695 721.024 79.076 720.97 79.1341C719.584 80.6135 717.315 81.3279 714.902 81.3279C711.235 81.3279 707.578 79.1704 707.59 74.8977C707.601 70.522 710.703 68.3636 714.112 67.8546C716.294 67.5298 718.755 67.8187 720.618 68.5589C720.737 68.6067 720.98 68.5376 720.982 68.3687C720.99 67.8111 720.963 66.7485 720.856 66.2448C720.582 64.9616 719.512 63.9291 717.263 63.6509C716.8 63.5938 716.333 63.575 715.867 63.6121C714.079 63.7526 711.928 65.1465 711.037 65.6684C710.827 65.791 710.499 65.7013 710.393 65.5645C709.873 64.8928 708.566 62.9283 708.463 62.6144C708.36 62.3013 708.505 62.0377 708.688 61.873L708.689 61.8741ZM728.655 70.0198C728.619 63.917 732.871 58.7687 739.776 58.7234C744.084 58.6953 747.214 60.6485 747.766 61.5698C747.878 61.7862 747.821 61.9669 747.743 62.1847C747.378 62.9547 746.457 64.4425 745.801 65.2857C745.521 65.6448 745.218 65.3371 744.865 65.1024C743.886 64.4504 742.026 63.6531 740.196 63.6531C736.875 63.6537 734.402 65.9306 734.43 70.1198C734.455 74.1398 736.824 76.349 740.207 76.4291C741.976 76.4735 743.689 75.457 744.611 74.6243C744.901 74.3716 745.2 74.4981 745.531 74.7567C746.18 75.4202 747.111 76.4446 747.627 77.1497C747.966 77.5415 747.713 77.9248 747.591 78.0788C746.19 79.8513 743.485 81.3431 739.905 81.3633C732.408 81.4159 728.69 76.145 728.655 70.0206M764.438 81.0882C764.79 81.0618 768.545 80.5435 769.698 80.2796C769.984 80.2144 770.086 79.9739 769.926 79.7356C769.282 78.7705 767.59 76.0298 765.818 73.5763C764.188 71.3204 762.47 69.3363 761.914 68.573C761.779 68.3875 761.786 68.2048 761.933 68.0609C762.99 67.0267 767.412 62.6917 769.074 60.9015C769.718 60.205 769.331 59.9055 768.785 59.7427C767.729 59.428 766.021 59.0356 765.05 58.8308C764.64 58.7442 764.147 58.7746 763.789 59.1427C762.127 60.6926 757.054 65.7837 755.54 67.3055C755.267 67.5801 755.109 67.5191 755.107 67.1267C755.095 64.1927 755.037 51.6308 754.932 49.5646C754.925 49.2915 754.596 49.0841 754.411 49.0742C753.459 49.0245 751.054 49.0101 750.106 49.0658C749.84 49.0959 749.586 49.3665 749.563 49.5953C749.345 52.8992 749.656 77.1522 749.786 80.5449C749.795 80.7903 749.978 80.9805 750.211 80.9943C751.156 81.0491 753.496 81.0455 754.588 81.025C755.125 81.025 755.191 80.6472 755.191 80.6472L755.272 74.1392C755.272 74.1392 755.327 73.8498 755.417 73.7542C755.802 73.3397 756.867 72.1981 757.321 71.7569C757.43 71.6509 757.602 71.6585 757.713 71.8083C758.253 72.5362 759.792 74.9025 761.218 77.0159C762.528 78.9574 763.752 80.6804 763.837 80.8021C764.034 81.0831 764.265 81.0944 764.439 81.089V81.0882H764.438ZM700.577 81.0657C700.907 81.0767 703.413 81.0739 704.523 81.0724C704.897 81.0798 705.091 80.7968 705.103 80.5469C705.339 75.79 705.238 53.1423 705.089 49.566C705.077 49.2569 704.944 49.1408 704.733 49.1127C703.781 48.9851 701.073 49.0149 700.205 49.242C700.035 49.2861 699.935 49.4151 699.93 49.5809C699.718 58.799 699.861 80.0512 699.906 80.4536C699.951 80.8566 700.161 81.0517 700.578 81.0657H700.577Z" fill="#494949"/>
<path d="M633.522 71.6075C631.978 71.6193 630.67 70.6992 630.188 69.2631C630.17 69.2089 630.153 69.1542 630.138 69.0993C629.612 67.2601 630.631 65.3362 632.458 64.7201L661.753 54.9054C662.101 54.8048 662.461 54.7522 662.823 54.7491C664.408 54.7368 665.752 55.6771 666.246 57.1436L666.29 57.2852C666.838 59.2008 665.477 60.9106 663.845 61.4587C663.844 61.4595 663.547 61.5598 634.712 71.4049C634.329 71.5356 633.927 71.604 633.522 71.6075Z" fill="#494949"/>
<path d="M638.406 86.015C636.85 86.0262 635.538 85.119 635.061 83.7034C635.043 83.6496 635.026 83.5953 635.01 83.5407C634.478 81.6797 635.496 79.7354 637.328 79.1186L666.625 69.2139C667.003 69.0874 667.394 69.0228 667.787 69.0192C669.348 69.0073 670.719 69.9606 671.202 71.3922L671.247 71.5412C671.53 72.5307 671.363 73.6428 670.8 74.5205C670.381 75.1731 669.059 75.7475 669.059 75.7475L639.651 85.8028C639.25 85.9386 638.83 86.0104 638.406 86.0155V86.015Z" fill="#494949"/>
<path d="M662.793 86.0776C662.034 86.0849 661.291 85.8516 660.673 85.4113C660.054 84.9709 659.591 84.346 659.349 83.6261L649.572 54.5836L649.523 54.4206C648.993 52.5685 650.012 50.6366 651.838 50.0212C652.203 49.8984 652.581 49.8343 652.961 49.8309C653.526 49.8267 654.072 49.954 654.587 50.2083C655.011 50.4181 655.39 50.7096 655.701 51.0661C656.012 51.4226 656.249 51.8371 656.4 52.2858L666.176 81.3258L666.205 81.4191C666.754 83.342 665.737 85.275 663.911 85.8904C663.551 86.0109 663.173 86.0741 662.793 86.0776Z" fill="#494949"/>
<path d="M648.259 90.9694C647.5 90.9767 646.757 90.7432 646.138 90.3024C645.519 89.8617 645.056 89.2363 644.814 88.516L635.039 59.4745C634.888 59.0265 634.826 58.553 634.858 58.0811C634.89 57.6092 635.014 57.1483 635.224 56.7246C635.434 56.3009 635.726 55.9228 636.083 55.612C636.439 55.3012 636.853 55.0638 637.302 54.9133C637.663 54.7925 638.041 54.7292 638.422 54.7255C639.181 54.718 639.923 54.9512 640.542 55.3916C641.161 55.832 641.625 56.457 641.866 57.177L651.641 86.2196C651.793 86.6678 651.854 87.1416 651.823 87.6137C651.791 88.0858 651.666 88.5469 651.456 88.9707C651.245 89.3945 650.953 89.7726 650.596 90.0834C650.24 90.3942 649.825 90.6315 649.376 90.7817C649.016 90.9025 648.638 90.9658 648.258 90.9691L648.259 90.9694Z" fill="#494949"/>
<path d="M657.973 79.5373L664.79 77.2064L662.561 70.5879L655.736 72.8944L657.973 79.5373Z" fill="#494949"/>
<path d="M643.461 84.4987L650.278 82.1681L648.033 75.499L641.209 77.8064L643.461 84.4987Z" fill="#494949"/>
<path d="M653.119 65.1212L659.937 62.7934L657.735 56.2522L650.904 58.5407L653.119 65.1212Z" fill="#494949"/>
<path d="M638.607 70.0758L645.425 67.7479L643.196 61.1233L636.365 63.4115L638.607 70.0758Z" fill="#494949"/>
</g>
<path d="M959.606 68.1162V79.1173H963.123V71.7833H975.982V79.1173H979.499V68.1162H959.606ZM962.721 64.5497H976.284C978.193 64.1981 979.549 62.4901 979.951 60.8827H959.054C959.456 62.4901 960.862 64.1478 962.721 64.5497ZM948.907 79.1173C950.665 78.3638 951.619 77.0578 952.021 75.5508H936.198V60.9329H932.631V79.1173H948.907ZM906.259 64.4995H918.817C920.726 63.9469 922.283 62.4901 922.685 60.9329H902.792V71.6828H919.068V75.4503H906.309C904.299 76.0029 902.592 77.3592 901.738 79.1173H922.584V68.1162H906.309L906.259 64.4995ZM875.315 64.5497H888.878C890.787 64.1981 892.193 62.4901 892.545 60.8827H871.598C872 62.4901 873.406 64.1478 875.315 64.5497ZM875.315 71.733H888.878C890.787 71.3814 892.193 69.6735 892.545 68.066H871.598C872 69.6735 873.406 71.3312 875.315 71.733ZM875.315 79.1173H888.878C890.787 78.7657 892.193 77.0578 892.545 75.4503H871.598C872 77.0578 873.406 78.7657 875.315 79.1173Z" fill="#494949"/>
<path d="M840 60.9329C840.402 62.5404 841.808 64.1478 843.667 64.5497H849.394L849.695 64.6502V79.0671H853.262V64.6502L853.563 64.5497H859.29C861.198 64.0474 862.555 62.5404 862.957 60.9329V60.8827L840 60.9329Z" fill="#494949"/>
<path d="M332.977 152.564C333.757 152.564 334.399 152.158 334.485 151.634L335.255 142.928C335.255 142.068 334.247 141.361 332.98 141.361C331.713 141.361 330.706 142.068 330.706 142.928L331.476 151.634C331.56 152.158 332.202 152.564 332.98 152.564H332.977ZM328.272 155.283C328.663 154.608 328.633 153.85 328.221 153.514L321.065 148.494C320.321 148.063 319.206 148.582 318.573 149.68C317.937 150.776 318.05 152.001 318.792 152.432L326.716 156.122C327.211 156.305 327.886 155.952 328.274 155.278L328.272 155.283ZM337.687 155.278C338.077 155.952 338.749 156.306 339.245 156.122L347.169 152.433C347.915 152.002 348.021 150.777 347.392 149.68C346.756 148.583 345.638 148.064 344.896 148.494L337.74 153.514C337.331 153.85 337.3 154.609 337.689 155.283L337.687 155.278ZM332.977 163.439C333.757 163.439 334.399 163.841 334.485 164.365L335.255 173.07C335.255 173.933 334.247 174.638 332.98 174.638C331.713 174.638 330.706 173.933 330.706 173.07L331.476 164.365C331.56 163.841 332.202 163.439 332.98 163.439H332.977ZM337.687 160.719C338.077 160.043 338.749 159.693 339.245 159.878L347.169 163.565C347.915 163.997 348.021 165.223 347.392 166.32C346.756 167.414 345.638 167.935 344.896 167.504L337.74 162.489C337.331 162.15 337.3 161.391 337.689 160.718H337.686M328.272 160.718C328.663 161.391 328.633 162.15 328.221 162.49L321.065 167.505C320.321 167.935 319.206 167.414 318.573 166.321C317.937 165.223 318.05 163.997 318.792 163.566L326.716 159.879C327.211 159.693 327.886 160.044 328.274 160.72H328.272" fill="#494949"/>
<path d="M287.838 162.474C287.838 162.741 287.815 163.016 287.741 163.258C287.438 164.263 286.397 165.113 285.095 165.113C284.01 165.113 283.147 164.497 283.147 163.194C283.147 161.201 285.341 160.65 287.839 160.664L287.838 162.473V162.474ZM291.756 159C291.756 155.713 290.351 152.821 285.606 152.821C283.17 152.821 281.236 153.505 280.181 154.115L280.954 156.757C281.918 156.148 283.455 155.644 284.91 155.644C287.317 155.638 287.711 157.007 287.711 157.884V158.092C282.464 158.084 279.147 159.901 279.147 163.602C279.147 165.863 280.837 167.982 283.773 167.982C285.578 167.982 287.089 167.261 287.994 166.106H288.083C288.083 166.106 288.681 168.614 291.985 167.654C291.813 166.612 291.756 165.499 291.756 164.16L291.756 159M210 148.344C210 148.344 213.429 162.394 213.977 164.675C214.615 167.336 215.766 168.316 219.084 167.654L221.225 158.944C221.767 156.779 222.131 155.236 222.481 153.036H222.541C222.787 155.259 223.135 156.786 223.582 158.951C223.582 158.951 224.453 162.906 224.9 164.982C225.347 167.058 226.593 168.367 229.842 167.654L234.944 148.344H230.826L229.084 156.693C228.615 159.122 228.191 161.023 227.863 163.245H227.805C227.507 161.042 227.128 159.22 226.652 156.852L224.839 148.344H220.548L218.608 156.638C218.059 159.159 217.544 161.193 217.218 163.341H217.159C216.824 161.319 216.378 158.76 215.895 156.321C215.895 156.321 214.744 150.389 214.339 148.344L210 148.344ZM242.733 162.474C242.733 162.741 242.709 163.016 242.635 163.258C242.332 164.263 241.291 165.113 239.989 165.113C238.903 165.113 238.042 164.497 238.042 163.194C238.042 161.201 240.236 160.65 242.733 160.664L242.733 162.473V162.474ZM246.65 159C246.65 155.713 245.245 152.821 240.501 152.821C238.064 152.821 236.129 153.505 235.075 154.115L235.847 156.757C236.811 156.148 238.348 155.644 239.803 155.644C242.212 155.638 242.606 157.007 242.606 157.884V158.092C237.357 158.084 234.041 159.901 234.041 163.602C234.041 165.863 235.73 167.982 238.664 167.982C240.471 167.982 241.982 167.261 242.887 166.106H242.975C242.975 166.106 243.576 168.614 246.879 167.654C246.706 166.612 246.65 165.499 246.65 164.16V159ZM253.187 163.555V148.344H249.265V167.655H253.187V163.555ZM304.494 148.344V162.59C304.494 164.554 304.865 165.93 305.655 166.771C306.347 167.507 307.484 167.983 308.848 167.983C310.008 167.983 311.148 167.762 311.686 167.562L311.636 164.498C311.235 164.596 310.775 164.675 310.146 164.675C308.81 164.675 308.363 163.819 308.363 162.056V156.606H311.778V152.91H308.363V148.344H304.494ZM294.371 153.148V167.655H298.417V160.227C298.417 159.826 298.441 159.476 298.505 159.156C298.804 157.599 299.994 156.606 301.703 156.606C302.171 156.606 302.507 156.656 302.87 156.708V152.91C302.565 152.85 302.358 152.821 301.979 152.821C300.469 152.821 298.751 153.795 298.03 155.885H297.921V153.148H294.371ZM255.933 153.148V167.655H259.875V159.148C259.875 158.749 259.922 158.327 260.06 157.961C260.387 157.104 261.184 156.101 262.456 156.101C264.047 156.101 264.79 157.446 264.79 159.387V167.654H268.729V159.044C268.729 158.663 268.781 158.204 268.894 157.868C269.217 156.893 270.076 156.1 271.258 156.1C272.871 156.1 273.645 157.421 273.645 159.706V167.654H277.586V159.109C277.586 154.603 275.298 152.82 272.715 152.82C271.572 152.82 270.669 153.106 269.852 153.606C269.167 154.029 268.551 154.628 268.015 155.414H267.957C267.334 153.851 265.868 152.821 263.958 152.821C261.505 152.821 260.402 154.064 259.734 155.119H259.675V153.148H255.933" fill="#494949"/>
<path d="M349.155 166.95H349.215C349.293 166.95 349.344 166.917 349.344 166.869C349.344 166.814 349.297 166.784 349.223 166.784C349.198 166.784 349.172 166.789 349.155 166.789V166.951V166.95L349.155 166.95ZM349.146 167.341H348.936V166.658C348.984 166.649 349.095 166.632 349.237 166.632C349.391 166.632 349.46 166.654 349.511 166.688C349.553 166.718 349.585 166.769 349.585 166.838C349.585 166.908 349.52 166.967 349.425 166.993V167.002C349.503 167.022 349.545 167.079 349.567 167.177C349.588 167.276 349.601 167.316 349.614 167.341H349.377C349.356 167.316 349.344 167.256 349.33 167.195C349.317 167.126 349.284 167.092 349.214 167.092H349.145L349.146 167.341ZM349.233 166.436C348.932 166.436 348.705 166.681 348.705 166.993C348.705 167.298 348.932 167.546 349.241 167.546C349.551 167.551 349.778 167.298 349.778 166.988C349.778 166.68 349.551 166.436 349.237 166.436H349.233ZM349.246 166.25C349.665 166.25 350 166.581 350 166.988C350 167.401 349.665 167.731 349.24 167.731C348.815 167.731 348.477 167.4 348.477 166.988C348.477 166.581 348.816 166.251 349.24 166.251H349.245" fill="#494949"/>
<mask id="mask0_921_10187" style="mask-type:luminance" maskUnits="userSpaceOnUse" x="427" y="140" width="126" height="36">
<path d="M553 140.5H427V175.5H553V140.5Z" fill="white"/>
</mask>
<g mask="url(#mask0_921_10187)">
<path d="M427 151.67H438.219L449.714 163.098H438.219V174.528L427 163.098V151.67ZM427 140.5H449.714V151.67H438.219L427 140.5Z" fill="#494949"/>
<path d="M471.107 164.655V147.779H481.561V151.15H475.031V155.577H481.561V158.949H475.031V164.655H471.107Z" fill="#494949"/>
<path d="M483.904 164.655V152.967H487.813V155.577C487.813 154.799 488.334 154.004 488.855 153.485C489.636 152.967 490.174 152.707 490.956 152.707C491.476 152.707 491.737 152.967 491.997 152.967V156.356H490.956C489.914 156.356 489.115 156.616 488.595 157.393C488.074 157.911 487.814 158.949 487.814 160.246V164.655H483.906H483.904Z" fill="#494949"/>
<path d="M499.309 162.061C500.35 162.061 500.872 161.802 501.392 161.023C501.913 160.505 502.173 159.726 502.173 158.948C502.173 157.911 501.913 157.392 501.392 156.614C500.871 156.095 500.35 155.836 499.309 155.836C498.528 155.836 497.729 156.096 497.208 156.614C496.688 157.392 496.427 157.911 496.427 158.948C496.427 159.726 496.688 160.505 497.208 161.023C497.728 161.801 498.526 162.061 499.309 162.061ZM498.267 165.174C496.427 165.174 495.124 164.397 494.082 163.358C493.301 162.32 492.779 160.764 492.779 158.948C492.779 157.651 493.04 156.614 493.301 155.836C493.823 154.799 494.602 154.004 495.385 153.486C496.166 152.967 497.209 152.709 498.267 152.709C499.048 152.709 499.83 152.968 500.611 153.227C501.131 153.486 501.653 154.004 501.914 154.799V152.967H505.822V164.655H501.914V163.098C501.653 163.616 501.133 164.135 500.611 164.655C499.83 164.915 499.048 165.174 498.267 165.174Z" fill="#494949"/>
<path d="M508.703 164.655V152.967H512.351V154.799C512.611 154.004 513.132 153.745 513.653 153.227C514.451 152.967 514.973 152.707 515.754 152.707C517.579 152.707 518.88 153.485 519.402 154.799C519.922 154.264 520.443 153.745 520.965 153.227C521.746 152.967 522.544 152.707 523.327 152.707C526.192 152.707 527.495 154.264 527.495 157.393V164.656H523.847V158.172C523.847 157.395 523.586 156.875 523.327 156.356C523.066 156.096 522.546 155.836 522.009 155.836C521.228 155.836 520.706 156.096 520.445 156.614C520.184 156.874 519.923 157.651 519.923 158.689V164.655H516.276V158.171C516.276 157.393 516.017 156.874 515.756 156.354C515.495 156.095 514.975 155.835 514.453 155.835C513.931 155.835 513.394 156.095 512.874 156.612C512.613 156.872 512.352 157.65 512.352 158.687V164.653H508.705L508.703 164.655Z" fill="#494949"/>
<path d="M533.242 157.652H538.19C538.19 156.874 537.931 156.354 537.67 155.837C537.148 155.317 536.629 155.317 535.846 155.317C535.063 155.317 534.282 155.577 533.762 155.837C533.501 156.354 533.242 156.874 533.242 157.652ZM541.855 158.171V159.986H533.242C533.242 160.764 533.503 161.283 534.023 161.803C534.284 162.061 535.065 162.321 535.846 162.321C537.148 162.321 537.67 162.061 538.19 161.283H541.855C541.595 162.321 541.074 163.358 539.771 164.136C538.728 164.654 537.411 165.173 535.848 165.173C533.764 165.173 532.2 164.654 531.158 163.356C530.099 162.319 529.318 160.762 529.318 158.947C529.318 156.872 530.099 155.575 531.158 154.263C532.2 153.225 533.764 152.706 535.848 152.706C537.672 152.706 538.991 153.224 540.293 154.263C541.334 155.317 541.857 156.614 541.857 158.17" fill="#494949"/>
<path d="M543.936 164.655V152.967H547.599V155.577C547.859 154.799 548.379 154.004 548.901 153.485C549.424 152.967 550.204 152.707 550.985 152.707C551.246 152.707 551.766 152.967 552.029 152.967V156.356H550.726C549.945 156.356 549.162 156.616 548.642 157.393C547.861 157.911 547.6 158.948 547.6 160.246V164.655H543.936Z" fill="#494949"/>
</g>
<g clip-path="url(#clip1_921_10187)">
<mask id="mask1_921_10187" style="mask-type:luminance" maskUnits="userSpaceOnUse" x="630" y="88" width="140" height="140">
<path d="M770 88H630V228H770V88Z" fill="white"/>
</mask>
<g mask="url(#mask1_921_10187)">
<mask id="mask2_921_10187" style="mask-type:luminance" maskUnits="userSpaceOnUse" x="630" y="88" width="140" height="140">
<path d="M770 88H630V228H770V88Z" fill="white"/>
</mask>
<g mask="url(#mask2_921_10187)">
<path d="M679.561 149.754H679.414C674.465 149.754 671.385 152.834 671.385 157.804V160.485C671.385 165.455 674.458 168.535 679.414 168.535H679.561C684.51 168.535 687.59 165.455 687.59 160.485V157.804C687.59 152.834 684.51 149.754 679.561 149.754ZM684.125 160.674C684.125 163.936 682.431 165.819 679.484 165.854C676.537 165.819 674.843 163.936 674.843 160.674V157.622C674.843 154.36 676.537 152.477 679.484 152.442C682.431 152.477 684.125 154.36 684.125 157.622V160.674ZM727.098 154.542H726.951C725.075 154.542 723.738 155.179 723.087 156.397L722.884 156.768V154.864H719.685V168.171H723.045V160.247C723.045 158.385 724.053 157.314 725.789 157.279C727.455 157.314 728.407 158.357 728.407 160.17V168.164H731.767V159.596C731.767 156.432 730.031 154.542 727.119 154.542H727.105H727.098ZM763.561 152.666V150.125H752.48V152.666H756.365V165.609H752.48V168.15H763.561V165.609H759.676V152.666H763.561ZM743.702 150.125H740.23L733.769 168.178H737.402L738.641 164.314H745.697V164.356L746.936 168.192H750.569L744.094 150.139H743.716L743.702 150.125ZM739.432 161.759L742.155 153.233L744.857 161.759H739.432ZM697.642 154.542H697.495C695.808 154.542 694.359 155.242 693.596 156.404L693.407 156.698V154.857H690.208V172.749H693.568V166.498L693.757 166.785C694.478 167.856 695.885 168.493 697.53 168.493H697.691C700.456 168.493 703.242 166.694 703.242 162.655V160.387C703.242 157.482 701.527 154.549 697.67 154.549L697.649 154.535L697.642 154.542ZM699.868 162.487C699.868 164.608 698.65 165.917 696.676 165.959C694.842 165.924 693.561 164.531 693.561 162.536V160.534C693.561 158.525 694.856 157.104 696.704 157.062C698.65 157.097 699.861 158.42 699.861 160.534V162.48L699.868 162.487ZM711.572 154.542C711.509 154.542 711.446 154.556 711.383 154.556C711.32 154.556 711.257 154.542 711.194 154.542C707.414 154.542 705.069 156.901 705.069 160.695V162.557C705.069 166.211 707.442 168.479 711.243 168.479C711.327 168.479 711.404 168.479 711.474 168.472C711.53 168.472 711.572 168.479 711.621 168.479C714.176 168.479 715.954 167.548 717.088 165.616L714.834 164.314C714.085 165.427 713.077 166.26 711.635 166.26C709.71 166.26 708.555 165.077 708.555 163.068V162.536H717.494V160.331C717.494 156.796 715.177 154.514 711.572 154.514V154.528V154.542ZM708.541 160.408V160.093C708.541 157.972 709.549 156.789 711.383 156.705C713.14 156.789 714.204 157.958 714.204 159.869V160.401H708.548V160.415L708.541 160.408Z" fill="#494949"/>
<path d="M665.266 155.158C665.973 153.03 665.735 150.699 664.601 148.76C662.893 145.792 659.463 144.266 656.117 144.98C654.626 143.307 652.484 142.355 650.237 142.362C646.814 142.362 643.776 144.567 642.719 147.815C640.514 148.27 638.617 149.649 637.504 151.595C635.789 154.563 636.181 158.287 638.477 160.835C637.77 162.963 638.008 165.294 639.142 167.219C640.85 170.194 644.28 171.72 647.64 171.013C649.124 172.686 651.266 173.652 653.506 173.638C656.929 173.638 659.967 171.433 661.024 168.185C663.229 167.73 665.126 166.351 666.225 164.405C667.954 161.437 667.562 157.713 665.259 155.165V155.151L665.266 155.158ZM662.83 149.789C663.509 150.972 663.761 152.365 663.53 153.709C663.488 153.674 663.404 153.632 663.348 153.604L657.118 149.999C656.803 149.817 656.411 149.817 656.089 149.999L648.788 154.213V151.119L654.815 147.633C657.622 146.009 661.199 146.975 662.823 149.782M648.788 156.215L651.861 154.437L654.934 156.215V159.764L651.861 161.542L648.788 159.764V156.215ZM650.216 144.406C651.595 144.406 652.918 144.882 653.975 145.764C653.933 145.785 653.849 145.841 653.786 145.869L647.556 149.46C647.241 149.642 647.045 149.978 647.045 150.349V158.784L644.364 157.237V150.265C644.364 147.024 646.982 144.406 650.223 144.399L650.209 144.413L650.216 144.406ZM639.275 152.624C639.961 151.434 641.032 150.524 642.327 150.048V157.454C642.327 157.825 642.516 158.154 642.838 158.343L650.125 162.55L647.437 164.104L641.424 160.632C638.624 159.008 637.665 155.431 639.282 152.624M640.927 166.211C640.241 165.035 639.996 163.635 640.227 162.291C640.269 162.326 640.353 162.368 640.409 162.396L646.639 165.994C646.954 166.176 647.346 166.176 647.668 165.994L654.955 161.78V164.874L648.928 168.346C646.121 169.956 642.544 169.004 640.92 166.204H640.927V166.211ZM653.52 171.594C652.155 171.594 650.818 171.118 649.768 170.236C649.81 170.215 649.908 170.159 649.957 170.131L656.187 166.54C656.502 166.358 656.705 166.022 656.698 165.651V157.23L659.379 158.777V165.735C659.379 168.976 656.754 171.601 653.52 171.601V171.587V171.594ZM664.475 163.376C663.789 164.559 662.704 165.476 661.423 165.938V158.532C661.423 158.161 661.234 157.825 660.912 157.643L653.611 153.429L656.292 151.882L662.319 155.354C665.126 156.978 666.078 160.555 664.461 163.362L664.475 163.376Z" fill="#494949"/>
</g>
</g>
</g>
<defs>
<clipPath id="clip0_921_10187">
<rect width="140" height="140" fill="white" transform="translate(630)"/>
</clipPath>
<clipPath id="clip1_921_10187">
<rect width="140" height="140" fill="white" transform="translate(630 88)"/>
</clipPath>
</defs>
</svg>
