<svg width="40" height="41" viewBox="0 0 40 41" fill="none" xmlns="http://www.w3.org/2000/svg">
<g clip-path="url(#clip0_983_10689)">
<path d="M11.1221 33.4596C9.71859 33.3953 8.45311 33.1125 7.5124 32.6987C7.29708 32.6041 7.0988 32.5025 6.91974 32.3951C6.90279 32.385 6.88604 32.3746 6.86943 32.3645C6.64789 32.2273 6.4574 32.0814 6.30247 31.9282C6.29933 31.9251 6.29616 31.9217 6.29304 31.9187L6.28883 31.9144C6.27509 31.9007 6.26162 31.8869 6.24846 31.8729C6.24723 31.7761 6.24661 31.6793 6.24661 31.5825C6.24661 31.0671 6.26409 30.5556 6.29851 30.0489L6.30025 30.0236C6.45311 27.8093 6.92922 25.6839 7.68167 23.6943C8.21176 21.3375 9.1149 19.1219 10.3259 17.1129C10.454 16.9003 10.5856 16.6899 10.7206 16.482L0.5 1.59903V1.45508H12.7535L17.3197 8.10421L17.9084 8.96148L18.1791 9.35578L19.455 11.2136L23.0082 16.3876L23.385 16.9364L27.1689 22.4465L39.5 40.4027H27.1476L22.248 33.2679L17.4555 26.2892L17.3089 26.0757C17.2143 26.345 17.1248 26.6166 17.0405 26.8905C16.7034 27.9845 16.4483 29.1143 16.2823 30.2731C16.2759 30.3168 16.2698 30.3609 16.2637 30.4049C16.2025 30.8516 16.1544 31.3022 16.12 31.7568C16.0994 31.782 16.0779 31.8073 16.0555 31.8322C16.0307 31.86 16.0047 31.8872 15.9777 31.9144C15.9732 31.9189 15.9686 31.9237 15.964 31.9282C15.8359 32.0547 15.6834 32.1768 15.5092 32.2927C15.4436 32.3361 15.3749 32.3791 15.3032 32.4209C15.2883 32.4296 15.2733 32.4383 15.2581 32.447C14.5597 32.8446 13.5927 33.1571 12.4773 33.3285C12.0536 33.3936 11.6085 33.4382 11.1487 33.4596H11.1221Z" fill="white"/>
<path d="M17.8237 7.63261L18.353 8.40343L18.7755 9.01871L20.0948 10.9398L23.4983 15.8959C25.7164 13.7376 28.382 12.0372 31.3429 10.9473L31.0943 13.768L32.5502 10.542L32.9233 9.71541L33.8201 7.72789L34.226 6.82837L35.354 4.32908L32.0544 2.87677L31.0561 2.43739L30.0651 2.0178L28.7366 1.45526L28.5755 1.38703L25.2998 0L27.3292 1.84072C25.8596 2.42622 24.4669 3.1636 23.1705 4.0335C21.2129 4.9727 19.4136 6.18938 17.8237 7.63261Z" fill="#32C69A"/>
<path d="M6.76446 34.9003C7.12528 35.0589 7.54373 35.292 8.00646 35.3967C8.85834 35.5892 9.86025 35.6817 10.9287 35.6427C10.9665 35.6413 11.0042 35.6399 11.0418 35.6383C11.0794 35.6399 11.1171 35.6413 11.1549 35.6427C11.9367 35.6714 12.6829 35.6296 13.3608 35.5294C14.0641 35.4256 14.6939 35.2592 15.2135 35.0443C15.2298 35.0375 15.246 35.0308 15.2621 35.0241C15.3819 34.973 15.4956 34.9194 15.6028 34.8636L15.6099 34.8599C15.7375 34.7929 15.8559 34.7222 15.9641 34.6487V34.0104V33.6403V32.7657C15.8562 32.8392 15.7383 32.9094 15.6111 32.9762L15.6028 32.9806C14.8302 33.3844 13.7179 33.6605 12.4403 33.743C11.6821 33.8875 10.6287 33.8187 10.1968 33.7663C9.18905 33.7463 8.26301 33.608 7.49629 33.381C7.06914 33.1554 6.69143 33.0017 6.37654 32.8252C6.37078 32.8218 6.36506 32.8188 6.35937 32.8154C6.29483 32.7789 6.23299 32.7413 6.17396 32.7029C6.13333 32.6765 6.09403 32.6496 6.05609 32.6221V34.505C6.14456 34.5687 6.24049 34.6302 6.34337 34.6894L6.35185 34.6941L6.35937 34.6983C6.36506 34.7017 6.37078 34.7048 6.37654 34.7082C6.48099 34.7665 6.59235 34.8226 6.71014 34.8759C6.7281 34.8841 6.74622 34.8922 6.76446 34.9003Z" fill="#32C69A"/>
<path d="M7.18219 37.6455C7.76955 37.8497 8.46948 37.9979 9.24016 38.0736C9.7714 38.1261 10.3363 38.1441 10.921 38.1227C10.9589 38.1213 10.9966 38.1199 11.0342 38.1182C11.0718 38.1199 11.1095 38.1213 11.1473 38.1227C12.5805 38.1752 13.894 37.9906 14.8862 37.6455C14.9303 37.6303 14.9738 37.6146 15.0167 37.5986C15.3956 37.4575 15.7234 37.292 15.9878 37.1068C16.001 37.0975 16.0142 37.0883 16.0271 37.079C16.0367 37.072 16.0461 37.065 16.0555 37.058V35.1753C16.0461 35.182 16.0367 35.189 16.0272 35.1961C16.0142 35.2053 16.0011 35.2146 15.9878 35.2241C15.4949 35.5689 14.7816 35.8459 13.9277 36.0246C13.9054 36.0291 13.883 36.0339 13.8605 36.0383C13.8098 36.0484 13.7587 36.0583 13.7071 36.0678C12.9388 36.2095 12.0677 36.2735 11.1473 36.2398C11.1095 36.2384 11.0718 36.237 11.0342 36.2353C10.9966 36.237 10.9589 36.2384 10.921 36.2398C10.0239 36.2726 9.17361 36.2126 8.4197 36.0785C8.40015 36.0748 8.38065 36.0715 8.36123 36.0678C8.30963 36.0583 8.25848 36.0484 8.20784 36.0383C7.58794 35.9135 7.03983 35.7373 6.59327 35.521C6.43079 35.4424 6.28172 35.3582 6.14754 35.2696V36.9252C6.16132 36.9398 6.17541 36.9544 6.1898 36.969C6.19432 36.9735 6.19886 36.978 6.20346 36.9825C6.42304 37.1996 6.71411 37.4025 7.06379 37.5854C7.10254 37.6059 7.14202 37.6258 7.18219 37.6455Z" fill="#32C69A"/>
<path d="M6.14754 39.4321C6.59837 39.7301 7.21699 39.9747 7.94923 40.1447C8.55875 40.2862 9.24698 40.3762 9.9827 40.4029H10.5079H10.9064H11.0342H11.1619H12.0857C13.7968 40.3412 15.2512 39.936 16.0555 39.3375V37.4546C15.8338 37.6196 15.5627 37.7697 15.2505 37.9021C14.2278 38.3359 12.7637 38.5783 11.1473 38.5194C11.1095 38.518 11.0718 38.5166 11.0342 38.5149C10.9966 38.5166 10.9589 38.518 10.921 38.5194C10.409 38.5382 9.91219 38.5264 9.4399 38.4882C8.59731 38.4198 7.83263 38.2663 7.19802 38.0477C6.78922 37.9069 6.43441 37.7388 6.14754 37.5491V39.4321Z" fill="#32C69A"/>
</g>
<defs>
<clipPath id="clip0_983_10689">
<rect width="39" height="40.4029" fill="white" transform="translate(0.5)"/>
</clipPath>
</defs>
</svg>
