<svg width="39" height="41" viewBox="0 0 39 41" fill="none" xmlns="http://www.w3.org/2000/svg">
<g clip-path="url(#clip0_904_6402)">
<path d="M10.6221 33.4597C9.21859 33.3954 7.95311 33.1126 7.0124 32.6988C6.79708 32.6042 6.5988 32.5027 6.41974 32.3952C6.40279 32.3851 6.38604 32.3747 6.36943 32.3646C6.14789 32.2274 5.9574 32.0815 5.80247 31.9283C5.79933 31.9252 5.79616 31.9219 5.79304 31.9188L5.78883 31.9146C5.77509 31.9008 5.76162 31.8871 5.74846 31.873C5.74723 31.7762 5.74661 31.6794 5.74661 31.5826C5.74661 31.0672 5.76409 30.5557 5.79851 30.049L5.80025 30.0238C5.95311 27.8094 6.42922 25.684 7.18167 23.6945C7.71176 21.3377 8.6149 19.122 9.82587 17.113C9.95401 16.9004 10.0856 16.6901 10.2206 16.4822L0 1.59916V1.4552H12.2535L16.8197 8.10434L17.4084 8.96161L17.6791 9.3559L18.955 11.2138L22.5082 16.3878L22.885 16.9365L26.6689 22.4466L39 40.4028H26.6476L21.748 33.2681L16.9555 26.2893L16.8089 26.0758C16.7143 26.3451 16.6248 26.6167 16.5405 26.8906C16.2034 27.9846 15.9483 29.1144 15.7823 30.2732C15.7759 30.317 15.7698 30.361 15.7637 30.4051C15.7025 30.8517 15.6544 31.3023 15.62 31.7569C15.5994 31.7821 15.5779 31.8074 15.5555 31.8324C15.5307 31.8601 15.5047 31.8874 15.4777 31.9146C15.4732 31.9191 15.4686 31.9238 15.464 31.9283C15.3359 32.0549 15.1834 32.1769 15.0092 32.2928C14.9436 32.3363 14.8749 32.3792 14.8032 32.421C14.7883 32.4297 14.7733 32.4384 14.7581 32.4471C14.0597 32.8447 13.0927 33.1572 11.9773 33.3287C11.5536 33.3938 11.1085 33.4384 10.6487 33.4597H10.6221Z" fill="#0A0F2C"/>
<path d="M17.3237 7.63261L17.853 8.40343L18.2755 9.01871L19.5948 10.9398L22.9983 15.8959C25.2164 13.7376 27.882 12.0372 30.8429 10.9473L30.5943 13.768L32.0502 10.542L32.4233 9.71541L33.3201 7.72789L33.726 6.82837L34.854 4.32908L31.5544 2.87677L30.5561 2.43739L29.5651 2.0178L28.2366 1.45526L28.0755 1.38703L24.7998 0L26.8292 1.84072C25.3596 2.42622 23.9669 3.1636 22.6705 4.0335C20.7129 4.9727 18.9136 6.18938 17.3237 7.63261Z" fill="#32C69A"/>
<path d="M6.26446 34.9006C6.62528 35.0591 7.04373 35.2923 7.50646 35.3969C8.35834 35.5894 9.36025 35.682 10.4287 35.643C10.4665 35.6416 10.5042 35.6402 10.5418 35.6385C10.5794 35.6402 10.6171 35.6416 10.6549 35.643C11.4367 35.6716 12.1829 35.6298 12.8608 35.5296C13.5641 35.4258 14.1939 35.2594 14.7135 35.0445C14.7298 35.0378 14.746 35.0311 14.7621 35.0243C14.8819 34.9733 14.9956 34.9197 15.1028 34.8638L15.1099 34.8602C15.2375 34.7931 15.3559 34.7224 15.4641 34.6489V34.0106V33.6405V32.766C15.3562 32.8395 15.2383 32.9096 15.1111 32.9764L15.1028 32.9809C14.3302 33.3846 13.2179 33.6607 11.9403 33.7432C11.1821 33.8877 10.1287 33.819 9.6968 33.7665C8.68905 33.7466 7.76301 33.6083 6.99629 33.3813C6.56914 33.1557 6.19143 33.0019 5.87654 32.8255C5.87078 32.8221 5.86506 32.819 5.85937 32.8156C5.79483 32.7792 5.73299 32.7416 5.67396 32.7031C5.63333 32.6767 5.59403 32.6498 5.55609 32.6223V34.5053C5.64456 34.5689 5.74049 34.6304 5.84337 34.6896L5.85185 34.6944L5.85937 34.6986C5.86506 34.7019 5.87078 34.705 5.87654 34.7084C5.98099 34.7668 6.09235 34.8229 6.21014 34.8762C6.2281 34.8843 6.24622 34.8925 6.26446 34.9006Z" fill="#32C69A"/>
<path d="M6.68219 37.6456C7.26955 37.8499 7.96948 37.998 8.74016 38.0738C9.2714 38.1262 9.83626 38.1442 10.421 38.1229C10.4589 38.1215 10.4966 38.1201 10.5342 38.1184C10.5718 38.1201 10.6095 38.1215 10.6473 38.1229C12.0805 38.1753 13.394 37.9907 14.3862 37.6456C14.4303 37.6305 14.4738 37.6147 14.5167 37.5987C14.8956 37.4576 15.2234 37.2921 15.4878 37.1069C15.501 37.0976 15.5142 37.0884 15.5271 37.0791C15.5367 37.0721 15.5461 37.0651 15.5555 37.0581V35.1754C15.5461 35.1821 15.5367 35.1892 15.5272 35.1962C15.5142 35.2054 15.5011 35.2147 15.4878 35.2242C14.9949 35.5691 14.2816 35.846 13.4277 36.0247C13.4054 36.0292 13.383 36.034 13.3605 36.0385C13.3098 36.0486 13.2587 36.0584 13.2071 36.0679C12.4388 36.2096 11.5677 36.2736 10.6473 36.2399C10.6095 36.2385 10.5718 36.2371 10.5342 36.2354C10.4966 36.2371 10.4589 36.2385 10.421 36.2399C9.52386 36.2727 8.67361 36.2127 7.9197 36.0786C7.90015 36.0749 7.88065 36.0716 7.86123 36.0679C7.80963 36.0584 7.75848 36.0486 7.70784 36.0385C7.08794 35.9136 6.53983 35.7374 6.09327 35.5211C5.93079 35.4425 5.78172 35.3583 5.64754 35.2697V36.9254C5.66132 36.94 5.67541 36.9545 5.6898 36.9691C5.69432 36.9736 5.69886 36.9781 5.70346 36.9826C5.92304 37.1998 6.21411 37.4026 6.56379 37.5856C6.60254 37.606 6.64202 37.626 6.68219 37.6456Z" fill="#32C69A"/>
<path d="M5.64754 39.4321C6.09837 39.7301 6.71699 39.9747 7.44923 40.1447C8.05875 40.2862 8.74698 40.3762 9.4827 40.4029H10.0079H10.4064H10.5342H10.6619H11.5857C13.2968 40.3412 14.7512 39.936 15.5555 39.3375V37.4546C15.3338 37.6196 15.0627 37.7697 14.7505 37.9021C13.7278 38.3359 12.2637 38.5783 10.6473 38.5194C10.6095 38.518 10.5718 38.5166 10.5342 38.5149C10.4966 38.5166 10.4589 38.518 10.421 38.5194C9.90898 38.5382 9.41219 38.5264 8.9399 38.4882C8.09731 38.4198 7.33263 38.2663 6.69802 38.0477C6.28922 37.9069 5.93441 37.7388 5.64754 37.5491V39.4321Z" fill="#32C69A"/>
</g>
<defs>
<clipPath id="clip0_904_6402">
<rect width="39" height="40.4029" fill="white"/>
</clipPath>
</defs>
</svg>
