<svg width="1369" height="176" viewBox="0 0 1369 176" fill="none" xmlns="http://www.w3.org/2000/svg">
<g opacity="0.3">
<mask id="path-1-outside-1_983_10684" maskUnits="userSpaceOnUse" x="0" y="0" width="1369" height="243" fill="black">
<rect fill="white" width="1369" height="243"/>
<path d="M79.72 203.32C64.96 203.32 52.09 200.53 41.11 194.95C30.13 189.37 21.4 181.72 14.92 172C8.62 162.1 4.93 150.67 3.85 137.71L28.15 136.09C29.41 145.63 32.2 153.73 36.52 160.39C40.84 167.05 46.6 172.09 53.8 175.51C61.18 178.93 70 180.64 80.26 180.64C89.26 180.64 96.91 179.47 103.21 177.13C109.51 174.79 114.28 171.37 117.52 166.87C120.94 162.37 122.65 156.88 122.65 150.4C122.65 144.46 121.21 139.24 118.33 134.74C115.63 130.06 110.32 125.83 102.4 122.05C94.66 118.09 83.14 114.22 67.84 110.44C53.08 106.66 41.29 102.52 32.47 98.02C23.83 93.52 17.53 88.03 13.57 81.55C9.79 75.07 7.9 67.06 7.9 57.52C7.9 46.72 10.42 37.27 15.46 29.17C20.68 20.89 28.06 14.5 37.6 9.99999C47.14 5.31999 58.48 2.98 71.62 2.98C85.66 2.98 97.72 5.67999 107.8 11.08C117.88 16.3 125.89 23.5 131.83 32.68C137.77 41.86 141.46 52.3 142.9 64L118.6 65.62C117.52 57.88 115 51.04 111.04 45.1C107.26 38.98 102.04 34.21 95.38 30.79C88.72 27.37 80.62 25.66 71.08 25.66C59.2 25.66 49.75 28.54 42.73 34.3C35.71 39.88 32.2 47.26 32.2 56.44C32.2 62.38 33.55 67.33 36.25 71.29C39.13 75.07 44.17 78.49 51.37 81.55C58.57 84.43 68.92 87.58 82.42 91C98.44 94.96 111.13 99.73 120.49 105.31C130.03 110.71 136.78 117.01 140.74 124.21C144.88 131.41 146.95 139.6 146.95 148.78C146.95 159.94 144.07 169.66 138.31 177.94C132.55 186.04 124.63 192.34 114.55 196.84C104.47 201.16 92.86 203.32 79.72 203.32ZM207.97 199L163.69 55.9H188.53L222.01 175.24L256.03 55.9H280.33L314.35 175.24L348.1 55.9H372.94L328.66 199H300.04L268.18 90.19L236.32 199H207.97ZM433.116 202.24C418.356 202.24 406.566 198.82 397.746 191.98C389.106 185.14 384.786 175.6 384.786 163.36C384.786 151.12 388.386 141.49 395.586 134.47C402.786 127.45 414.216 122.5 429.876 119.62L480.636 110.17C480.636 98.11 477.756 89.11 471.996 83.17C466.416 77.23 457.956 74.26 446.616 74.26C436.716 74.26 428.886 76.51 423.126 81.01C417.366 85.33 413.406 91.63 411.246 99.91L387.216 98.02C389.916 84.52 396.396 73.63 406.656 65.35C417.096 56.89 430.416 52.66 446.616 52.66C464.976 52.66 479.016 57.88 488.736 68.32C498.456 78.58 503.316 92.8 503.316 110.98V170.11C503.316 173.35 503.856 175.69 504.936 177.13C506.196 178.39 508.176 179.02 510.876 179.02H516.546V199C515.826 199.18 514.656 199.27 513.036 199.27C511.416 199.45 509.706 199.54 507.906 199.54C501.426 199.54 496.116 198.55 491.976 196.57C488.016 194.41 485.136 191.17 483.336 186.85C481.536 182.35 480.636 176.5 480.636 169.3L483.336 169.84C482.076 175.96 479.016 181.54 474.156 186.58C469.296 191.44 463.266 195.31 456.066 198.19C448.866 200.89 441.216 202.24 433.116 202.24ZM435.276 182.26C444.816 182.26 452.916 180.46 459.576 176.86C466.416 173.08 471.636 168.04 475.236 161.74C478.836 155.26 480.636 148.06 480.636 140.14V129.88L434.196 138.52C424.476 140.32 417.726 143.11 413.946 146.89C410.346 150.49 408.546 155.26 408.546 161.2C408.546 167.86 410.886 173.08 415.566 176.86C420.426 180.46 426.996 182.26 435.276 182.26ZM542.163 239.5V55.9H563.223L563.763 86.68L560.523 85.06C564.123 74.44 570.063 66.43 578.343 61.03C586.803 55.45 596.523 52.66 607.503 52.66C621.723 52.66 633.333 56.17 642.333 63.19C651.513 70.21 658.263 79.39 662.583 90.73C667.083 102.07 669.332 114.31 669.332 127.45C669.332 140.59 667.083 152.83 662.583 164.17C658.263 175.51 651.513 184.69 642.333 191.71C633.333 198.73 621.723 202.24 607.503 202.24C600.123 202.24 593.193 200.98 586.713 198.46C580.413 195.94 575.013 192.43 570.513 187.93C566.193 183.43 563.223 178.12 561.603 172L564.843 168.22V239.5H542.163ZM605.343 180.64C617.763 180.64 627.573 175.96 634.773 166.6C641.973 157.24 645.573 144.19 645.573 127.45C645.573 110.71 641.973 97.66 634.773 88.3C627.573 78.94 617.763 74.26 605.343 74.26C597.063 74.26 589.863 76.24 583.743 80.2C577.803 84.16 573.123 90.1 569.703 98.02C566.463 105.94 564.843 115.75 564.843 127.45C564.843 139.15 566.463 148.96 569.703 156.88C572.943 164.8 577.623 170.74 583.743 174.7C589.863 178.66 597.063 180.64 605.343 180.64ZM679.915 199L742.825 102.88L680.455 7.29999H707.995L757.945 84.52L807.355 7.29999H834.355L771.985 102.34L835.435 199H807.895L757.405 120.7L706.915 199H679.915ZM855.932 199V55.9H876.722L877.532 92.35L874.832 89.92C876.632 81.46 879.782 74.53 884.282 69.13C888.782 63.55 894.182 59.41 900.482 56.71C906.962 54.01 913.892 52.66 921.272 52.66C932.252 52.66 941.252 55.09 948.272 59.95C955.472 64.81 960.782 71.38 964.202 79.66C967.802 87.76 969.602 96.85 969.602 106.93V199H946.922V113.41C946.922 104.59 945.842 97.21 943.682 91.27C941.702 85.15 938.462 80.56 933.962 77.5C929.462 74.26 923.612 72.64 916.412 72.64C905.432 72.64 896.342 76.15 889.142 83.17C882.122 90.01 878.612 100.09 878.612 113.41V199H855.932ZM1065.54 202.24C1052.04 202.24 1040.34 199.18 1030.44 193.06C1020.72 186.94 1013.16 178.3 1007.76 167.14C1002.54 155.8 999.933 142.57 999.933 127.45C999.933 112.33 1002.54 99.19 1007.76 88.03C1013.16 76.87 1020.63 68.23 1030.17 62.11C1039.89 55.81 1051.32 52.66 1064.46 52.66C1076.88 52.66 1087.86 55.63 1097.4 61.57C1106.94 67.33 1114.32 75.79 1119.54 86.95C1124.94 98.11 1127.64 111.7 1127.64 127.72V134.47H1023.69C1024.59 149.77 1028.64 161.29 1035.84 169.03C1043.22 176.77 1053.12 180.64 1065.54 180.64C1074.9 180.64 1082.55 178.48 1088.49 174.16C1094.61 169.66 1098.84 163.81 1101.18 156.61L1125.48 158.5C1121.7 171.28 1114.5 181.81 1103.88 190.09C1093.44 198.19 1080.66 202.24 1065.54 202.24ZM1023.69 114.49H1102.8C1101.72 100.63 1097.67 90.46 1090.65 83.98C1083.81 77.5 1075.08 74.26 1064.46 74.26C1053.48 74.26 1044.39 77.68 1037.19 84.52C1030.17 91.18 1025.67 101.17 1023.69 114.49ZM1138.64 199L1191.29 125.56L1141.34 55.9H1167.8L1205.33 109.9L1241.78 55.9H1268.78L1219.37 126.1L1271.21 199H1244.75L1205.33 141.22L1165.64 199H1138.64ZM1343.63 199C1330.67 199 1321.04 196.03 1314.74 190.09C1308.62 184.15 1305.56 174.88 1305.56 162.28V22.42H1328.24V161.74C1328.24 168.22 1329.68 172.72 1332.56 175.24C1335.44 177.76 1339.85 179.02 1345.79 179.02H1366.31V199H1343.63ZM1284.5 75.88V55.9H1366.31V75.88H1284.5Z"/>
</mask>
<path d="M41.11 194.95L39.8995 197.332L41.11 194.95ZM14.92 172L12.6659 173.434L12.6812 173.458L12.6969 173.482L14.92 172ZM3.85 137.71L3.67228 135.044L0.961857 135.225L1.18744 137.932L3.85 137.71ZM28.15 136.09L30.7988 135.74L30.4709 133.258L27.9723 133.424L28.15 136.09ZM36.52 160.39L38.7615 158.936L36.52 160.39ZM53.8 175.51L52.6537 177.923L52.6651 177.929L52.6766 177.934L53.8 175.51ZM103.21 177.13L102.28 174.625L103.21 177.13ZM117.52 166.87L115.393 165.253L115.372 165.281L115.352 165.309L117.52 166.87ZM118.33 134.74L116.016 136.075L116.046 136.128L116.08 136.18L118.33 134.74ZM102.4 122.05L101.183 124.429L101.216 124.445L101.249 124.461L102.4 122.05ZM67.84 110.44L67.1772 113.028L67.1882 113.031L67.1992 113.034L67.84 110.44ZM32.47 98.02L31.2358 100.39L31.2458 100.395L31.2558 100.4L32.47 98.02ZM13.57 81.55L11.2622 82.8962L11.276 82.9199L11.2902 82.9432L13.57 81.55ZM15.46 29.17L13.1999 27.7451L13.1957 27.7518L13.1915 27.7585L15.46 29.17ZM37.6 9.99998L38.7398 12.4164L38.7583 12.4077L38.7767 12.3987L37.6 9.99998ZM107.8 11.08L106.538 13.4351L106.555 13.4439L106.571 13.4525L107.8 11.08ZM131.83 32.68L134.073 31.2285V31.2285L131.83 32.68ZM142.9 64L143.078 66.6659L145.897 66.4779L145.552 63.6736L142.9 64ZM118.6 65.62L115.954 65.9892L116.297 68.4512L118.778 68.2859L118.6 65.62ZM111.04 45.1L108.767 46.504L108.791 46.5434L108.817 46.582L111.04 45.1ZM42.73 34.3L44.3925 36.3915L44.4087 36.3786L44.4248 36.3655L42.73 34.3ZM36.25 71.29L34.0425 72.7951L34.0821 72.8532L34.1248 72.9092L36.25 71.29ZM51.37 81.55L50.325 84.0089L50.3512 84.0201L50.3777 84.0307L51.37 81.55ZM82.42 91L81.7639 93.59L81.7714 93.5919L81.7789 93.5937L82.42 91ZM120.49 105.31L119.122 107.605L119.148 107.62L119.174 107.635L120.49 105.31ZM140.74 124.21L138.399 125.498L138.411 125.52L138.424 125.542L140.74 124.21ZM138.31 177.94L140.487 179.488L140.495 179.477L140.503 179.466L138.31 177.94ZM114.55 196.84L115.602 199.296L115.621 199.288L115.639 199.28L114.55 196.84ZM79.72 203.32V200.648C65.298 200.648 52.858 197.923 42.3205 192.568L41.11 194.95L39.8995 197.332C51.322 203.137 64.6221 205.992 79.72 205.992V203.32ZM41.11 194.95L42.3205 192.568C31.7266 187.184 23.3545 179.835 17.1431 170.518L14.92 172L12.6969 173.482C19.4455 183.605 28.5334 191.556 39.8995 197.332L41.11 194.95ZM14.92 172L17.1741 170.566C11.1307 161.069 7.56057 150.064 6.51256 137.488L3.85 137.71L1.18744 137.932C2.29943 151.276 6.10926 163.131 12.6659 173.434L14.92 172ZM3.85 137.71L4.02773 140.376L28.3277 138.756L28.15 136.09L27.9723 133.424L3.67228 135.044L3.85 137.71ZM28.15 136.09L25.5012 136.44C26.8024 146.291 29.7014 154.788 34.2785 161.844L36.52 160.39L38.7615 158.936C34.6986 152.672 32.0176 144.969 30.7988 135.74L28.15 136.09ZM36.52 160.39L34.2785 161.844C38.8688 168.921 45.0088 174.292 52.6537 177.923L53.8 175.51L54.9464 173.097C48.1912 169.888 42.8112 165.179 38.7615 158.936L36.52 160.39ZM53.8 175.51L52.6766 177.934C60.4881 181.554 69.7103 183.312 80.26 183.312V180.64V177.968C70.2897 177.968 61.8719 176.306 54.9234 173.086L53.8 175.51ZM80.26 180.64V183.312C89.4764 183.312 97.4606 182.116 104.14 179.635L103.21 177.13L102.28 174.625C96.3594 176.824 89.0436 177.968 80.26 177.968V180.64ZM103.21 177.13L104.14 179.635C110.831 177.15 116.078 173.445 119.688 168.431L117.52 166.87L115.352 165.309C112.482 169.295 108.189 172.43 102.28 174.625L103.21 177.13ZM117.52 166.87L119.647 168.487C123.471 163.455 125.322 157.375 125.322 150.4H122.65H119.978C119.978 156.385 118.409 161.285 115.393 165.253L117.52 166.87ZM122.65 150.4H125.322C125.322 144.009 123.766 138.277 120.58 133.3L118.33 134.74L116.08 136.18C118.654 140.203 119.978 144.911 119.978 150.4H122.65ZM118.33 134.74L120.644 133.405C117.553 128.047 111.681 123.519 103.551 119.639L102.4 122.05L101.249 124.461C108.959 128.141 113.707 132.073 116.016 136.075L118.33 134.74ZM102.4 122.05L103.617 119.671C95.6024 115.571 83.8472 111.643 68.4808 107.846L67.84 110.44L67.1992 113.034C82.4328 116.797 93.7176 120.609 101.183 124.429L102.4 122.05ZM67.84 110.44L68.5029 107.852C53.8433 104.097 42.2615 100.016 33.6842 95.6401L32.47 98.02L31.2558 100.4C40.3185 105.024 52.3167 109.223 67.1772 113.028L67.84 110.44ZM32.47 98.02L33.7042 95.6504C25.3752 91.3123 19.4943 86.1205 15.8498 80.1568L13.57 81.55L11.2902 82.9432C15.5657 89.9395 22.2848 95.7276 31.2358 100.39L32.47 98.02ZM13.57 81.55L15.8778 80.2038C12.3927 74.2292 10.5718 66.7133 10.5718 57.52H7.9H5.22821C5.22821 67.4067 7.18732 75.9108 11.2622 82.8962L13.57 81.55ZM7.9 57.52H10.5718C10.5718 47.1513 12.9856 38.2039 17.7285 30.5815L15.46 29.17L13.1915 27.7585C7.85435 36.336 5.22821 46.2887 5.22821 57.52H7.9ZM15.46 29.17L17.7201 30.5949C22.6476 22.7789 29.6228 16.7169 38.7398 12.4164L37.6 9.99998L36.4602 7.58354C26.4972 12.2831 18.7124 19.0011 13.1999 27.7451L15.46 29.17ZM37.6 9.99998L38.7767 12.3987C47.8742 7.9358 58.7935 5.65178 71.62 5.65178V2.98V0.308212C58.1665 0.308212 46.4058 2.70419 36.4233 7.60129L37.6 9.99998ZM71.62 2.98V5.65178C85.3188 5.65178 96.9252 8.28522 106.538 13.4351L107.8 11.08L109.062 8.72486C98.5148 3.07477 86.0012 0.308212 71.62 0.308212V2.98ZM107.8 11.08L106.571 13.4525C116.255 18.4674 123.909 25.3567 129.587 34.1314L131.83 32.68L134.073 31.2285C127.871 21.6433 119.505 14.1326 109.029 8.70746L107.8 11.08ZM131.83 32.68L129.587 34.1314C135.29 42.9461 138.854 52.9955 140.248 64.3264L142.9 64L145.552 63.6736C144.066 51.6045 140.25 40.7739 134.073 31.2285L131.83 32.68ZM142.9 64L142.722 61.3341L118.422 62.9541L118.6 65.62L118.778 68.2859L143.078 66.6659L142.9 64ZM118.6 65.62L121.246 65.2508C120.116 57.151 117.466 49.923 113.263 43.618L111.04 45.1L108.817 46.582C112.534 52.1569 114.924 58.609 115.954 65.9892L118.6 65.62ZM111.04 45.1L113.313 43.696C109.267 37.1446 103.675 32.0461 96.6005 28.4133L95.38 30.79L94.1595 33.1667C100.405 36.3739 105.253 40.8154 108.767 46.504L111.04 45.1ZM95.38 30.79L96.6005 28.4133C89.4736 24.7535 80.9313 22.9882 71.08 22.9882V25.66V28.3318C80.3088 28.3318 87.9664 29.9865 94.1595 33.1667L95.38 30.79ZM71.08 25.66V22.9882C58.7746 22.9882 48.6633 25.9756 41.0352 32.2345L42.73 34.3L44.4248 36.3655C50.8367 31.1044 59.6254 28.3318 71.08 28.3318V25.66ZM42.73 34.3L41.0675 32.2085C33.3924 38.3091 29.5282 46.4679 29.5282 56.44H32.2H34.8718C34.8718 48.0521 38.0276 41.4508 44.3925 36.3915L42.73 34.3ZM32.2 56.44H29.5282C29.5282 62.7876 30.9745 68.2954 34.0425 72.7951L36.25 71.29L38.4575 69.7849C36.1255 66.3646 34.8718 61.9724 34.8718 56.44H32.2ZM36.25 71.29L34.1248 72.9092C37.4124 77.2243 42.9438 80.8719 50.325 84.0089L51.37 81.55L52.415 79.0911C45.3962 76.1081 40.8476 72.9157 38.3752 69.6708L36.25 71.29ZM51.37 81.55L50.3777 84.0307C57.7409 86.976 68.2241 90.1599 81.7639 93.59L82.42 91L83.0761 88.41C69.6159 85.0001 59.3991 81.884 52.3623 79.0693L51.37 81.55ZM82.42 91L81.7789 93.5937C97.6603 97.5195 110.073 102.21 119.122 107.605L120.49 105.31L121.858 103.015C112.187 97.2498 99.2197 92.4005 83.0611 88.4063L82.42 91ZM120.49 105.31L119.174 107.635C128.423 112.87 134.745 118.854 138.399 125.498L140.74 124.21L143.081 122.922C138.815 115.166 131.637 108.55 121.806 102.985L120.49 105.31ZM140.74 124.21L138.424 125.542C142.307 132.295 144.278 140.017 144.278 148.78H146.95H149.622C149.622 139.183 147.453 130.525 143.056 122.878L140.74 124.21ZM146.95 148.78H144.278C144.278 159.455 141.532 168.629 136.117 176.414L138.31 177.94L140.503 179.466C146.608 170.691 149.622 160.425 149.622 148.78H146.95ZM138.31 177.94L136.133 176.392C130.679 184.061 123.154 190.073 113.461 194.4L114.55 196.84L115.639 199.28C126.106 194.607 134.421 188.019 140.487 179.488L138.31 177.94ZM114.55 196.84L113.498 194.384C103.809 198.536 92.5685 200.648 79.72 200.648V203.32V205.992C93.1515 205.992 105.131 203.784 115.602 199.296L114.55 196.84ZM207.97 199L205.418 199.79L206 201.672H207.97V199ZM163.69 55.9V53.2282H160.066L161.138 56.6898L163.69 55.9ZM188.53 55.9L191.102 55.1783L190.555 53.2282H188.53V55.9ZM222.01 175.24L219.438 175.962L221.989 185.058L224.579 175.972L222.01 175.24ZM256.03 55.9V53.2282H254.013L253.461 55.1675L256.03 55.9ZM280.33 55.9L282.899 55.1675L282.347 53.2282H280.33V55.9ZM314.35 175.24L311.781 175.972L314.36 185.022L316.921 175.967L314.35 175.24ZM348.1 55.9V53.2282H346.079L345.529 55.1729L348.1 55.9ZM372.94 55.9L375.492 56.6898L376.564 53.2282H372.94V55.9ZM328.66 199V201.672H330.63L331.212 199.79L328.66 199ZM300.04 199L297.476 199.751L298.038 201.672H300.04V199ZM268.18 90.19L270.744 89.4392L268.18 80.6821L265.616 89.4392L268.18 90.19ZM236.32 199V201.672H238.322L238.884 199.751L236.32 199ZM207.97 199L210.522 198.21L166.242 55.1102L163.69 55.9L161.138 56.6898L205.418 199.79L207.97 199ZM163.69 55.9V58.5718H188.53V55.9V53.2282H163.69V55.9ZM188.53 55.9L185.958 56.6217L219.438 175.962L222.01 175.24L224.582 174.518L191.102 55.1783L188.53 55.9ZM222.01 175.24L224.579 175.972L258.599 56.6324L256.03 55.9L253.461 55.1675L219.441 174.508L222.01 175.24ZM256.03 55.9V58.5718H280.33V55.9V53.2282H256.03V55.9ZM280.33 55.9L277.761 56.6324L311.781 175.972L314.35 175.24L316.919 174.508L282.899 55.1675L280.33 55.9ZM314.35 175.24L316.921 175.967L350.671 56.6271L348.1 55.9L345.529 55.1729L311.779 174.513L314.35 175.24ZM348.1 55.9V58.5718H372.94V55.9V53.2282H348.1V55.9ZM372.94 55.9L370.388 55.1102L326.108 198.21L328.66 199L331.212 199.79L375.492 56.6898L372.94 55.9ZM328.66 199V196.328H300.04V199V201.672H328.66V199ZM300.04 199L302.604 198.249L270.744 89.4392L268.18 90.19L265.616 90.9408L297.476 199.751L300.04 199ZM268.18 90.19L265.616 89.4392L233.756 198.249L236.32 199L238.884 199.751L270.744 90.9408L268.18 90.19ZM236.32 199V196.328H207.97V199V201.672H236.32V199ZM397.746 191.98L396.088 194.075L396.098 194.083L396.109 194.091L397.746 191.98ZM395.586 134.47L397.451 136.383L395.586 134.47ZM429.876 119.62L430.359 122.248L430.365 122.247L429.876 119.62ZM480.636 110.17L481.125 112.797L483.308 112.39V110.17H480.636ZM471.996 83.17L470.049 84.9993L470.063 85.0147L470.078 85.03L471.996 83.17ZM423.126 81.01L424.729 83.1474L424.75 83.1316L424.771 83.1154L423.126 81.01ZM411.246 99.91L411.037 102.574L413.267 102.749L413.832 100.584L411.246 99.91ZM387.216 98.02L384.596 97.496L384.006 100.448L387.007 100.684L387.216 98.02ZM406.656 65.35L408.334 67.4292L408.338 67.4258L406.656 65.35ZM488.736 68.32L486.781 70.1406L486.789 70.1491L486.797 70.1575L488.736 68.32ZM504.936 177.13L502.799 178.733L502.913 178.885L503.047 179.019L504.936 177.13ZM516.546 179.02H519.218V176.348H516.546V179.02ZM516.546 199L517.194 201.592L519.218 201.086V199H516.546ZM513.036 199.27V196.598H512.888L512.741 196.615L513.036 199.27ZM491.976 196.57L490.697 198.916L490.759 198.95L490.823 198.98L491.976 196.57ZM483.336 186.85L480.856 187.842L480.863 187.86L480.87 187.878L483.336 186.85ZM480.636 169.3L481.16 166.68L477.964 166.041V169.3H480.636ZM483.336 169.84L485.953 170.379L486.495 167.747L483.86 167.22L483.336 169.84ZM474.156 186.58L476.046 188.469L476.063 188.452L476.08 188.435L474.156 186.58ZM456.066 198.19L457.004 200.692L457.032 200.681L457.059 200.671L456.066 198.19ZM459.576 176.86L460.847 179.21L460.858 179.204L460.869 179.198L459.576 176.86ZM475.236 161.74L477.556 163.066L477.564 163.052L477.572 163.038L475.236 161.74ZM480.636 129.88H483.308V126.665L480.148 127.253L480.636 129.88ZM434.196 138.52L434.683 141.147L434.685 141.147L434.196 138.52ZM413.946 146.89L415.835 148.779L413.946 146.89ZM415.566 176.86L413.887 178.938L413.931 178.974L413.976 179.007L415.566 176.86ZM433.116 202.24V199.568C418.758 199.568 407.604 196.243 399.384 189.869L397.746 191.98L396.109 194.091C405.529 201.397 417.955 204.912 433.116 204.912V202.24ZM397.746 191.98L399.405 189.885C391.481 183.613 387.458 174.887 387.458 163.36H384.786H382.114C382.114 176.313 386.731 186.667 396.088 194.075L397.746 191.98ZM384.786 163.36H387.458C387.458 151.673 390.876 142.794 397.451 136.383L395.586 134.47L393.721 132.557C385.897 140.186 382.114 150.567 382.114 163.36H384.786ZM395.586 134.47L397.451 136.383C404.11 129.891 414.941 125.083 430.359 122.248L429.876 119.62L429.393 116.992C413.491 119.917 401.463 125.009 393.721 132.557L395.586 134.47ZM429.876 119.62L430.365 122.247L481.125 112.797L480.636 110.17L480.147 107.543L429.387 116.993L429.876 119.62ZM480.636 110.17H483.308C483.308 97.7317 480.34 87.9368 473.914 81.31L471.996 83.17L470.078 85.03C475.172 90.2832 477.964 98.4883 477.964 110.17H480.636ZM471.996 83.17L473.944 81.3407C467.686 74.6796 458.397 71.5882 446.616 71.5882V74.26V76.9318C457.515 76.9318 465.146 79.7804 470.049 84.9993L471.996 83.17ZM446.616 74.26V71.5882C436.33 71.5882 427.853 73.9265 421.481 78.9046L423.126 81.01L424.771 83.1154C429.919 79.0935 437.103 76.9318 446.616 76.9318V74.26ZM423.126 81.01L421.523 78.8726C415.193 83.6203 410.944 90.4854 408.661 99.2356L411.246 99.91L413.832 100.584C415.869 92.7746 419.54 87.0397 424.729 83.1474L423.126 81.01ZM411.246 99.91L411.456 97.2464L387.426 95.3564L387.216 98.02L387.007 100.684L411.037 102.574L411.246 99.91ZM387.216 98.02L389.836 98.544C392.42 85.6272 398.583 75.2984 408.334 67.4292L406.656 65.35L404.978 63.2708C394.209 71.9616 387.413 83.4128 384.596 97.496L387.216 98.02ZM406.656 65.35L408.338 67.4258C418.21 59.4262 430.898 55.3318 446.616 55.3318V52.66V49.9882C429.934 49.9882 415.982 54.3537 404.974 63.2742L406.656 65.35ZM446.616 52.66V55.3318C464.46 55.3318 477.702 60.3889 486.781 70.1406L488.736 68.32L490.692 66.4994C480.331 55.3711 465.493 49.9882 446.616 49.9882V52.66ZM488.736 68.32L486.797 70.1575C495.923 79.7912 500.644 93.2805 500.644 110.98H503.316H505.988C505.988 92.3195 500.989 77.3688 490.676 66.4825L488.736 68.32ZM503.316 110.98H500.644V170.11H503.316H505.988V110.98H503.316ZM503.316 170.11H500.644C500.644 173.521 501.189 176.586 502.799 178.733L504.936 177.13L507.074 175.527C506.524 174.794 505.988 173.179 505.988 170.11H503.316ZM504.936 177.13L503.047 179.019C505.015 180.987 507.827 181.692 510.876 181.692V179.02V176.348C508.526 176.348 507.378 175.793 506.826 175.241L504.936 177.13ZM510.876 179.02V181.692H516.546V179.02V176.348H510.876V179.02ZM516.546 179.02H513.874V199H516.546H519.218V179.02H516.546ZM516.546 199L515.898 196.408C515.52 196.503 514.632 196.598 513.036 196.598V199.27V201.942C514.68 201.942 516.133 201.857 517.194 201.592L516.546 199ZM513.036 199.27L512.741 196.615C511.229 196.783 509.618 196.868 507.906 196.868V199.54V202.212C509.795 202.212 511.604 202.117 513.331 201.925L513.036 199.27ZM507.906 199.54V196.868C501.672 196.868 496.792 195.912 493.129 194.16L491.976 196.57L490.823 198.98C495.44 201.188 501.181 202.212 507.906 202.212V199.54ZM491.976 196.57L493.256 194.224C489.851 192.367 487.378 189.604 485.803 185.822L483.336 186.85L480.87 187.878C482.895 192.736 486.181 196.453 490.697 198.916L491.976 196.57ZM483.336 186.85L485.817 185.858C484.189 181.788 483.308 176.31 483.308 169.3H480.636H477.964C477.964 176.69 478.884 182.912 480.856 187.842L483.336 186.85ZM480.636 169.3L480.112 171.92L482.812 172.46L483.336 169.84L483.86 167.22L481.16 166.68L480.636 169.3ZM483.336 169.84L480.719 169.301C479.573 174.868 476.785 180.004 472.233 184.725L474.156 186.58L476.08 188.435C481.247 183.076 484.579 177.052 485.953 170.379L483.336 169.84ZM474.156 186.58L472.267 184.691C467.694 189.264 461.981 192.946 455.074 195.709L456.066 198.19L457.059 200.671C464.551 197.674 470.899 193.616 476.046 188.469L474.156 186.58ZM456.066 198.19L455.128 195.688C448.244 198.27 440.913 199.568 433.116 199.568V202.24V204.912C441.519 204.912 449.489 203.51 457.004 200.692L456.066 198.19ZM435.276 182.26V184.932C445.147 184.932 453.708 183.069 460.847 179.21L459.576 176.86L458.306 174.51C452.125 177.851 444.486 179.588 435.276 179.588V182.26ZM459.576 176.86L460.869 179.198C468.103 175.2 473.694 169.824 477.556 163.066L475.236 161.74L472.917 160.414C469.578 166.256 464.729 170.96 458.284 174.522L459.576 176.86ZM475.236 161.74L477.572 163.038C481.407 156.133 483.308 148.482 483.308 140.14H480.636H477.964C477.964 147.638 476.265 154.386 472.901 160.442L475.236 161.74ZM480.636 140.14H483.308V129.88H480.636H477.964V140.14H480.636ZM480.636 129.88L480.148 127.253L433.708 135.893L434.196 138.52L434.685 141.147L481.125 132.507L480.636 129.88ZM434.196 138.52L433.71 135.893C423.847 137.719 416.426 140.632 412.057 145.001L413.946 146.89L415.835 148.779C419.026 145.588 425.106 142.921 434.683 141.147L434.196 138.52ZM413.946 146.89L412.057 145.001C407.872 149.185 405.874 154.679 405.874 161.2H408.546H411.218C411.218 155.841 412.82 151.795 415.835 148.779L413.946 146.89ZM408.546 161.2H405.874C405.874 168.569 408.507 174.593 413.887 178.938L415.566 176.86L417.245 174.782C413.266 171.567 411.218 167.151 411.218 161.2H408.546ZM415.566 176.86L413.976 179.007C419.439 183.054 426.631 184.932 435.276 184.932V182.26V179.588C427.361 179.588 421.414 177.866 417.157 174.713L415.566 176.86ZM542.162 239.5H539.491V242.172H542.162V239.5ZM542.162 55.9V53.2282H539.491V55.9H542.162ZM563.222 55.9L565.894 55.8531L565.848 53.2282H563.222V55.9ZM563.763 86.68L562.568 89.0697L566.511 91.0415L566.434 86.6331L563.763 86.68ZM560.523 85.06L557.992 84.2022L557.244 86.4081L559.328 87.4497L560.523 85.06ZM578.343 61.03L579.802 63.2679L579.814 63.2603L578.343 61.03ZM642.333 63.19L640.689 65.2967L640.699 65.3046L640.71 65.3123L642.333 63.19ZM662.583 90.73L660.086 91.6811L660.092 91.6983L660.099 91.7155L662.583 90.73ZM662.583 164.17L660.099 163.185L660.092 163.202L660.086 163.219L662.583 164.17ZM642.333 191.71L640.71 189.588L640.699 189.595L640.689 189.603L642.333 191.71ZM586.713 198.46L585.72 200.941L585.732 200.945L585.744 200.95L586.713 198.46ZM570.513 187.93L568.585 189.78L568.604 189.8L568.623 189.819L570.513 187.93ZM561.602 172L559.574 170.261L558.661 171.327L559.02 172.684L561.602 172ZM564.843 168.22H567.514V160.997L562.814 166.481L564.843 168.22ZM564.843 239.5V242.172H567.514V239.5H564.843ZM634.773 166.6L632.655 164.971L634.773 166.6ZM634.773 88.3L632.655 89.929L634.773 88.3ZM583.742 80.2L582.291 77.9568L582.276 77.9668L582.26 77.9769L583.742 80.2ZM569.703 98.02L567.25 96.9608L567.239 96.9845L567.23 97.0084L569.703 98.02ZM569.703 156.88L572.175 155.868L569.703 156.88ZM583.742 174.7L585.194 172.457L583.742 174.7ZM542.162 239.5H544.834V55.9H542.162H539.491V239.5H542.162ZM542.162 55.9V58.5718H563.222V55.9V53.2282H542.162V55.9ZM563.222 55.9L560.551 55.9469L561.091 86.7269L563.763 86.68L566.434 86.6331L565.894 55.8531L563.222 55.9ZM563.763 86.68L564.957 84.2903L561.717 82.6703L560.523 85.06L559.328 87.4497L562.568 89.0697L563.763 86.68ZM560.523 85.06L563.053 85.9177C566.488 75.7846 572.09 68.2974 579.802 63.2679L578.343 61.03L576.883 58.7921C568.035 64.5626 561.757 73.0954 557.992 84.2022L560.523 85.06ZM578.343 61.03L579.814 63.2603C587.8 57.9924 597 55.3318 607.503 55.3318V52.66V49.9882C596.045 49.9882 585.805 52.9076 576.871 58.7997L578.343 61.03ZM607.503 52.66V55.3318C621.277 55.3318 632.264 58.7253 640.689 65.2967L642.333 63.19L643.976 61.0833C634.401 53.6147 622.168 49.9882 607.503 49.9882V52.66ZM642.333 63.19L640.71 65.3123C649.475 72.0153 655.933 80.7808 660.086 91.6811L662.583 90.73L665.079 89.7789C660.592 77.9992 653.55 68.4047 643.956 61.0676L642.333 63.19ZM662.583 90.73L660.099 91.7155C664.465 102.718 666.661 114.621 666.661 127.45H669.333H672.004C672.004 113.999 669.7 101.422 665.066 89.7445L662.583 90.73ZM669.333 127.45H666.661C666.661 140.279 664.465 152.182 660.099 163.185L662.583 164.17L665.066 165.155C669.7 153.478 672.004 140.901 672.004 127.45H669.333ZM662.583 164.17L660.086 163.219C655.933 174.119 649.475 182.885 640.71 189.588L642.333 191.71L643.956 193.832C653.55 186.495 660.592 176.901 665.079 165.121L662.583 164.17ZM642.333 191.71L640.689 189.603C632.264 196.175 621.277 199.568 607.503 199.568V202.24V204.912C622.168 204.912 634.401 201.285 643.976 193.817L642.333 191.71ZM607.503 202.24V199.568C600.433 199.568 593.834 198.363 587.681 195.97L586.713 198.46L585.744 200.95C592.551 203.597 599.812 204.912 607.503 204.912V202.24ZM586.713 198.46L587.705 195.979C581.718 193.585 576.629 190.268 572.402 186.041L570.513 187.93L568.623 189.819C573.396 194.592 579.107 198.295 585.72 200.941L586.713 198.46ZM570.513 187.93L572.44 186.08C568.439 181.912 565.691 177.005 564.185 171.316L561.602 172L559.02 172.684C560.754 179.235 563.946 184.948 568.585 189.78L570.513 187.93ZM561.602 172L563.631 173.739L566.871 169.959L564.843 168.22L562.814 166.481L559.574 170.261L561.602 172ZM564.843 168.22H562.171V239.5H564.843H567.514V168.22H564.843ZM564.843 239.5V236.828H542.162V239.5V242.172H564.843V239.5ZM605.343 180.64V183.312C618.542 183.312 629.155 178.285 636.89 168.229L634.773 166.6L632.655 164.971C625.99 173.635 616.983 177.968 605.343 177.968V180.64ZM634.773 166.6L636.89 168.229C644.572 158.242 648.244 144.54 648.244 127.45H645.573H642.901C642.901 143.84 639.373 156.238 632.655 164.971L634.773 166.6ZM645.573 127.45H648.244C648.244 110.36 644.572 96.6579 636.89 86.671L634.773 88.3L632.655 89.929C639.373 98.6621 642.901 111.06 642.901 127.45H645.573ZM634.773 88.3L636.89 86.671C629.155 76.6149 618.542 71.5882 605.343 71.5882V74.26V76.9318C616.983 76.9318 625.99 81.2651 632.655 89.929L634.773 88.3ZM605.343 74.26V71.5882C596.62 71.5882 588.9 73.6804 582.291 77.9568L583.742 80.2L585.194 82.4431C590.825 78.7996 597.505 76.9318 605.343 76.9318V74.26ZM583.742 80.2L582.26 77.9769C575.809 82.2778 570.831 88.6669 567.25 96.9608L569.703 98.02L572.155 99.0792C575.414 91.5331 579.796 86.0422 585.225 82.423L583.742 80.2ZM569.703 98.02L567.23 97.0084C563.82 105.344 562.171 115.522 562.171 127.45H564.843H567.514C567.514 115.978 569.105 106.536 572.175 99.0316L569.703 98.02ZM564.843 127.45H562.171C562.171 139.378 563.82 149.556 567.23 157.892L569.703 156.88L572.175 155.868C569.105 148.364 567.514 138.922 567.514 127.45H564.843ZM569.703 156.88L567.23 157.892C570.639 166.227 575.637 172.638 582.291 176.943L583.742 174.7L585.194 172.457C579.608 168.842 575.246 163.373 572.175 155.868L569.703 156.88ZM583.742 174.7L582.291 176.943C588.9 181.22 596.62 183.312 605.343 183.312V180.64V177.968C597.505 177.968 590.825 176.1 585.194 172.457L583.742 174.7ZM679.915 199L677.68 197.537L674.973 201.672H679.915V199ZM742.825 102.88L745.061 104.343L746.017 102.882L745.063 101.42L742.825 102.88ZM680.455 7.29999V4.6282H675.521L678.218 8.76008L680.455 7.29999ZM707.995 7.29999L710.239 5.84886L709.449 4.6282H707.995V7.29999ZM757.945 84.52L755.702 85.9711L757.957 89.4581L760.196 85.96L757.945 84.52ZM807.355 7.29999V4.6282H805.893L805.105 5.85998L807.355 7.29999ZM834.355 7.29999L836.589 8.76588L839.304 4.6282H834.355V7.29999ZM771.985 102.34L769.752 100.874L768.789 102.34L769.752 103.806L771.985 102.34ZM835.435 199V201.672H840.385L837.669 197.534L835.435 199ZM807.895 199L805.65 200.448L806.439 201.672H807.895V199ZM757.405 120.7L759.651 119.252L757.405 115.77L755.16 119.252L757.405 120.7ZM706.915 199V201.672H708.371L709.161 200.448L706.915 199ZM679.915 199L682.151 200.463L745.061 104.343L742.825 102.88L740.59 101.417L677.68 197.537L679.915 199ZM742.825 102.88L745.063 101.42L682.693 5.8399L680.455 7.29999L678.218 8.76008L740.588 104.34L742.825 102.88ZM680.455 7.29999V9.97177H707.995V7.29999V4.6282H680.455V7.29999ZM707.995 7.29999L705.752 8.75111L755.702 85.9711L757.945 84.52L760.189 83.0689L710.239 5.84886L707.995 7.29999ZM757.945 84.52L760.196 85.96L809.606 8.74001L807.355 7.29999L805.105 5.85998L755.695 83.08L757.945 84.52ZM807.355 7.29999V9.97177H834.355V7.29999V4.6282H807.355V7.29999ZM834.355 7.29999L832.122 5.8341L769.752 100.874L771.985 102.34L774.219 103.806L836.589 8.76588L834.355 7.29999ZM771.985 102.34L769.752 103.806L833.202 200.466L835.435 199L837.669 197.534L774.219 100.874L771.985 102.34ZM835.435 199V196.328H807.895V199V201.672H835.435V199ZM807.895 199L810.141 197.552L759.651 119.252L757.405 120.7L755.16 122.148L805.65 200.448L807.895 199ZM757.405 120.7L755.16 119.252L704.67 197.552L706.915 199L709.161 200.448L759.651 122.148L757.405 120.7ZM706.915 199V196.328H679.915V199V201.672H706.915V199ZM855.932 199H853.26V201.672H855.932V199ZM855.932 55.9V53.2282H853.26V55.9H855.932ZM876.722 55.9L879.393 55.8406L879.335 53.2282H876.722V55.9ZM877.532 92.35L875.745 94.3359L880.341 98.4722L880.203 92.2906L877.532 92.35ZM874.832 89.92L872.219 89.364L871.898 90.8735L873.045 91.9059L874.832 89.92ZM884.282 69.13L886.335 70.8404L886.348 70.8239L886.362 70.8072L884.282 69.13ZM900.482 56.71L899.454 54.2437L899.442 54.2489L899.43 54.2542L900.482 56.71ZM948.272 59.95L946.751 62.1467L946.764 62.1557L946.777 62.1645L948.272 59.95ZM964.202 79.66L961.733 80.68L961.746 80.7127L961.761 80.7451L964.202 79.66ZM969.602 199V201.672H972.274V199H969.602ZM946.922 199H944.25V201.672H946.922V199ZM943.682 91.27L941.14 92.0924L941.155 92.138L941.171 92.1831L943.682 91.27ZM933.962 77.5L932.401 79.6682L932.43 79.6892L932.46 79.7094L933.962 77.5ZM889.142 83.17L891.007 85.0836L891.007 85.083L889.142 83.17ZM878.612 199V201.672H881.284V199H878.612ZM855.932 199H858.604V55.9H855.932H853.26V199H855.932ZM855.932 55.9V58.5718H876.722V55.9V53.2282H855.932V55.9ZM876.722 55.9L874.051 55.9594L874.861 92.4094L877.532 92.35L880.203 92.2906L879.393 55.8406L876.722 55.9ZM877.532 92.35L879.319 90.3641L876.619 87.9341L874.832 89.92L873.045 91.9059L875.745 94.3359L877.532 92.35ZM874.832 89.92L877.445 90.476C879.175 82.3442 882.169 75.8386 886.335 70.8404L884.282 69.13L882.229 67.4196C877.395 73.2214 874.089 80.5758 872.219 89.364L874.832 89.92ZM884.282 69.13L886.362 70.8072C890.601 65.5506 895.654 61.686 901.534 59.1658L900.482 56.71L899.43 54.2542C892.71 57.134 886.963 61.5494 882.202 67.4528L884.282 69.13ZM900.482 56.71L901.51 59.1763C907.647 56.6188 914.226 55.3318 921.272 55.3318V52.66V49.9882C913.558 49.9882 906.277 51.4012 899.454 54.2437L900.482 56.71ZM921.272 52.66V55.3318C931.863 55.3318 940.29 57.6738 946.751 62.1467L948.272 59.95L949.793 57.7533C942.214 52.5062 932.641 49.9882 921.272 49.9882V52.66ZM948.272 59.95L946.777 62.1645C953.528 66.7211 958.506 72.8692 961.733 80.68L964.202 79.66L966.671 78.64C963.058 69.8908 957.416 62.8988 949.767 57.7355L948.272 59.95ZM964.202 79.66L961.761 80.7451C965.189 88.4596 966.93 97.1726 966.93 106.93H969.602H972.274C972.274 96.5274 970.415 87.0604 966.644 78.5749L964.202 79.66ZM969.602 106.93H966.93V199H969.602H972.274V106.93H969.602ZM969.602 199V196.328H946.922V199V201.672H969.602V199ZM946.922 199H949.594V113.41H946.922H944.25V199H946.922ZM946.922 113.41H949.594C949.594 104.392 948.492 96.6803 946.193 90.3569L943.682 91.27L941.171 92.1831C943.192 97.7397 944.25 104.788 944.25 113.41H946.922ZM943.682 91.27L946.224 90.4476C944.096 83.8693 940.541 78.7426 935.464 75.2906L933.962 77.5L932.46 79.7094C936.383 82.3774 939.308 86.4307 941.14 92.0924L943.682 91.27ZM933.962 77.5L935.523 75.3318C930.45 71.6788 924.006 69.9682 916.412 69.9682V72.64V75.3118C923.219 75.3118 928.474 76.8412 932.401 79.6682L933.962 77.5ZM916.412 72.64V69.9682C904.805 69.9682 895.024 73.7036 887.277 81.257L889.142 83.17L891.007 85.083C897.66 78.5964 906.059 75.3118 916.412 75.3118V72.64ZM889.142 83.17L887.277 81.2564C879.577 88.759 875.94 99.6359 875.94 113.41H878.612H881.284C881.284 100.544 884.667 91.261 891.007 85.0836L889.142 83.17ZM878.612 113.41H875.94V199H878.612H881.284V113.41H878.612ZM878.612 199V196.328H855.932V199V201.672H878.612V199ZM1030.44 193.06L1029.02 195.321L1029.03 195.327L1029.04 195.333L1030.44 193.06ZM1007.76 167.14L1005.34 168.257L1005.35 168.281L1005.36 168.304L1007.76 167.14ZM1007.76 88.03L1005.36 86.8663L1005.35 86.8821L1005.34 86.898L1007.76 88.03ZM1030.17 62.11L1031.62 64.3588L1031.63 64.352L1030.17 62.11ZM1097.4 61.57L1095.99 63.8381L1096.01 63.8477L1096.02 63.8572L1097.4 61.57ZM1119.54 86.95L1117.12 88.082L1117.13 88.0979L1117.14 88.1137L1119.54 86.95ZM1127.64 134.47V137.142H1130.31V134.47H1127.64ZM1023.69 134.47V131.798H1020.86L1021.03 134.627L1023.69 134.47ZM1035.84 169.03L1033.89 170.85L1033.9 170.862L1033.91 170.874L1035.84 169.03ZM1088.49 174.16L1090.06 176.321L1090.08 176.313L1088.49 174.16ZM1101.18 156.61L1101.39 153.946L1099.29 153.783L1098.64 155.784L1101.18 156.61ZM1125.48 158.5L1128.04 159.258L1128.98 156.092L1125.69 155.836L1125.48 158.5ZM1103.88 190.09L1105.52 192.201L1105.53 192.197L1103.88 190.09ZM1023.69 114.49L1021.05 114.097L1020.59 117.162H1023.69V114.49ZM1102.8 114.49V117.162H1105.69L1105.47 114.282L1102.8 114.49ZM1090.65 83.98L1088.82 85.9196L1088.83 85.9315L1088.84 85.9432L1090.65 83.98ZM1037.19 84.52L1039.03 86.4583L1039.03 86.457L1037.19 84.52ZM1065.54 202.24V199.568C1052.46 199.568 1041.26 196.607 1031.85 190.787L1030.44 193.06L1029.04 195.333C1039.42 201.753 1051.63 204.912 1065.54 204.912V202.24ZM1030.44 193.06L1031.87 190.799C1022.6 184.967 1015.37 176.723 1010.17 165.976L1007.76 167.14L1005.36 168.304C1010.96 179.877 1018.84 188.913 1029.02 195.321L1030.44 193.06ZM1007.76 167.14L1010.19 166.023C1005.16 155.099 1002.6 142.264 1002.6 127.45H999.933H997.261C997.261 142.876 999.924 156.501 1005.34 168.257L1007.76 167.14ZM999.933 127.45H1002.6C1002.6 112.634 1005.16 99.8965 1010.18 89.162L1007.76 88.03L1005.34 86.898C999.924 98.4835 997.261 112.026 997.261 127.45H999.933ZM1007.76 88.03L1010.17 89.1937C1015.37 78.4342 1022.53 70.1881 1031.62 64.3588L1030.17 62.11L1028.73 59.8612C1018.74 66.2719 1010.95 75.3058 1005.36 86.8663L1007.76 88.03ZM1030.17 62.11L1031.63 64.352C1040.86 58.369 1051.77 55.3318 1064.46 55.3318V52.66V49.9882C1050.88 49.9882 1038.93 53.251 1028.72 59.868L1030.17 62.11ZM1064.46 52.66V55.3318C1076.44 55.3318 1086.92 58.1892 1095.99 63.8381L1097.4 61.57L1098.81 59.3019C1088.81 53.0708 1077.33 49.9882 1064.46 49.9882V52.66ZM1097.4 61.57L1096.02 63.8572C1105.06 69.315 1112.1 77.3488 1117.12 88.082L1119.54 86.95L1121.96 85.818C1116.54 74.2312 1108.82 65.345 1098.78 59.2828L1097.4 61.57ZM1119.54 86.95L1117.14 88.1137C1122.32 98.8209 1124.97 111.99 1124.97 127.72H1127.64H1130.31C1130.31 111.41 1127.57 97.399 1121.95 85.7863L1119.54 86.95ZM1127.64 127.72H1124.97V134.47H1127.64H1130.31V127.72H1127.64ZM1127.64 134.47V131.798H1023.69V134.47V137.142H1127.64V134.47ZM1023.69 134.47L1021.03 134.627C1021.95 150.275 1026.11 162.489 1033.89 170.85L1035.84 169.03L1037.8 167.21C1031.18 160.091 1027.24 149.265 1026.36 134.313L1023.69 134.47ZM1035.84 169.03L1033.91 170.874C1041.88 179.229 1052.52 183.312 1065.54 183.312V180.64V177.968C1053.72 177.968 1044.57 174.311 1037.78 167.186L1035.84 169.03ZM1065.54 180.64V183.312C1075.31 183.312 1083.56 181.054 1090.06 176.321L1088.49 174.16L1086.92 171.999C1081.55 175.906 1074.49 177.968 1065.54 177.968V180.64ZM1088.49 174.16L1090.08 176.313C1096.64 171.483 1101.21 165.169 1103.72 157.436L1101.18 156.61L1098.64 155.784C1096.48 162.451 1092.58 167.837 1086.91 172.007L1088.49 174.16ZM1101.18 156.61L1100.98 159.274L1125.28 161.164L1125.48 158.5L1125.69 155.836L1101.39 153.946L1101.18 156.61ZM1125.48 158.5L1122.92 157.742C1119.3 169.982 1112.43 180.042 1102.24 187.983L1103.88 190.09L1105.53 192.197C1116.58 183.578 1124.1 172.578 1128.04 159.258L1125.48 158.5ZM1103.88 190.09L1102.24 187.979C1092.34 195.664 1080.16 199.568 1065.54 199.568V202.24V204.912C1081.17 204.912 1094.55 200.716 1105.52 192.201L1103.88 190.09ZM1023.69 114.49V117.162H1102.8V114.49V111.818H1023.69V114.49ZM1102.8 114.49L1105.47 114.282C1104.36 100.053 1100.17 89.1245 1092.46 82.0168L1090.65 83.98L1088.84 85.9432C1095.18 91.7955 1099.09 101.207 1100.14 114.698L1102.8 114.49ZM1090.65 83.98L1092.49 82.0404C1085.09 75.0293 1075.67 71.5882 1064.46 71.5882V74.26V76.9318C1074.49 76.9318 1082.54 79.9707 1088.82 85.9196L1090.65 83.98ZM1064.46 74.26V71.5882C1052.88 71.5882 1043.1 75.2197 1035.35 82.5829L1037.19 84.52L1039.03 86.457C1045.68 80.1403 1054.09 76.9318 1064.46 76.9318V74.26ZM1037.19 84.52L1035.35 82.5817C1027.76 89.7868 1023.08 100.414 1021.05 114.097L1023.69 114.49L1026.34 114.883C1028.26 101.926 1032.59 92.5731 1039.03 86.4583L1037.19 84.52ZM1138.64 199L1136.47 197.443L1133.44 201.672H1138.64V199ZM1191.29 125.56L1193.46 127.117L1194.58 125.56L1193.46 124.003L1191.29 125.56ZM1141.34 55.9V53.2282H1136.14L1139.17 57.4569L1141.34 55.9ZM1167.8 55.9L1170 54.3752L1169.2 53.2282H1167.8V55.9ZM1205.33 109.9L1203.14 111.425L1205.37 114.628L1207.55 111.395L1205.33 109.9ZM1241.78 55.9V53.2282H1240.36L1239.57 54.4052L1241.78 55.9ZM1268.78 55.9L1270.97 57.4378L1273.93 53.2282H1268.78V55.9ZM1219.37 126.1L1217.19 124.562L1216.1 126.108L1217.2 127.648L1219.37 126.1ZM1271.21 199V201.672H1276.39L1273.39 197.452L1271.21 199ZM1244.75 199L1242.55 200.506L1243.34 201.672H1244.75V199ZM1205.33 141.22L1207.54 139.714L1205.34 136.49L1203.13 139.707L1205.33 141.22ZM1165.64 199V201.672H1167.05L1167.85 200.513L1165.64 199ZM1138.64 199L1140.81 200.557L1193.46 127.117L1191.29 125.56L1189.12 124.003L1136.47 197.443L1138.64 199ZM1191.29 125.56L1193.46 124.003L1143.51 54.3431L1141.34 55.9L1139.17 57.4569L1189.12 127.117L1191.29 125.56ZM1141.34 55.9V58.5718H1167.8V55.9V53.2282H1141.34V55.9ZM1167.8 55.9L1165.61 57.4248L1203.14 111.425L1205.33 109.9L1207.53 108.375L1170 54.3752L1167.8 55.9ZM1205.33 109.9L1207.55 111.395L1244 57.3948L1241.78 55.9L1239.57 54.4052L1203.12 108.405L1205.33 109.9ZM1241.78 55.9V58.5718H1268.78V55.9V53.2282H1241.78V55.9ZM1268.78 55.9L1266.6 54.3622L1217.19 124.562L1219.37 126.1L1221.56 127.638L1270.97 57.4378L1268.78 55.9ZM1219.37 126.1L1217.2 127.648L1269.04 200.548L1271.21 199L1273.39 197.452L1221.55 124.552L1219.37 126.1ZM1271.21 199V196.328H1244.75V199V201.672H1271.21V199ZM1244.75 199L1246.96 197.494L1207.54 139.714L1205.33 141.22L1203.13 142.726L1242.55 200.506L1244.75 199ZM1205.33 141.22L1203.13 139.707L1163.44 197.487L1165.64 199L1167.85 200.513L1207.54 142.733L1205.33 141.22ZM1165.64 199V196.328H1138.64V199V201.672H1165.64V199ZM1314.74 190.09L1312.88 192.007L1312.9 192.021L1312.91 192.034L1314.74 190.09ZM1305.56 22.42V19.7482H1302.89V22.42H1305.56ZM1328.24 22.42H1330.92V19.7482H1328.24V22.42ZM1332.56 175.24L1334.32 173.229L1332.56 175.24ZM1366.31 179.02H1368.99V176.348H1366.31V179.02ZM1366.31 199V201.672H1368.99V199H1366.31ZM1284.5 75.88H1281.83V78.5518H1284.5V75.88ZM1284.5 55.9V53.2282H1281.83V55.9H1284.5ZM1366.31 55.9H1368.99V53.2282H1366.31V55.9ZM1366.31 75.88V78.5518H1368.99V75.88H1366.31ZM1343.63 199V196.328C1331.02 196.328 1322.18 193.432 1316.58 188.146L1314.74 190.09L1312.91 192.034C1319.91 198.628 1330.32 201.672 1343.63 201.672V199ZM1314.74 190.09L1316.61 188.173C1311.21 182.934 1308.24 174.502 1308.24 162.28H1305.56H1302.89C1302.89 175.258 1306.04 185.366 1312.88 192.007L1314.74 190.09ZM1305.56 162.28H1308.24V22.42H1305.56H1302.89V162.28H1305.56ZM1305.56 22.42V25.0918H1328.24V22.42V19.7482H1305.56V22.42ZM1328.24 22.42H1325.57V161.74H1328.24H1330.92V22.42H1328.24ZM1328.24 161.74H1325.57C1325.57 168.478 1327.05 173.963 1330.8 177.251L1332.56 175.24L1334.32 173.229C1332.32 171.477 1330.92 167.962 1330.92 161.74H1328.24ZM1332.56 175.24L1330.8 177.251C1334.38 180.378 1339.55 181.692 1345.79 181.692V179.02V176.348C1340.16 176.348 1336.51 175.142 1334.32 173.229L1332.56 175.24ZM1345.79 179.02V181.692H1366.31V179.02V176.348H1345.79V179.02ZM1366.31 179.02H1363.64V199H1366.31H1368.99V179.02H1366.31ZM1366.31 199V196.328H1343.63V199V201.672H1366.31V199ZM1284.5 75.88H1287.18V55.9H1284.5H1281.83V75.88H1284.5ZM1284.5 55.9V58.5718H1366.31V55.9V53.2282H1284.5V55.9ZM1366.31 55.9H1363.64V75.88H1366.31H1368.99V55.9H1366.31ZM1366.31 75.88V73.2082H1284.5V75.88V78.5518H1366.31V75.88Z" fill="#ECEFF3" mask="url(#path-1-outside-1_983_10684)"/>
</g>
</svg>
